M48
; DRILL file {KiCad (6.0.7-1)-1} date 
; FORMAT={-:-/ absolute / metric / decimal}
; #@! TF.CreationDate,2022-09-28T23:37:12+09:00
; #@! TF.GenerationSoftware,Kicad,Pcbnew,(6.0.7-1)-1
; #@! TF.FileFunction,MixedPlating,1,2
FMAT,2
METRIC
; #@! TA.AperFunction,Plated,PTH,ComponentDrill
T1C0.800
; #@! TA.AperFunction,Plated,PTH,ComponentDrill
T2C1.000
%
G90
G05
T1
X2.56Y2.54
X5.06Y2.54
X6.355Y55.885
X6.355Y53.345
X6.355Y50.805
X6.355Y48.265
X6.355Y45.725
X6.355Y43.185
X6.355Y40.645
X6.355Y38.105
X6.355Y35.565
X6.355Y33.025
X6.355Y30.485
X6.355Y27.945
X6.355Y25.405
X6.355Y22.865
X6.355Y20.325
X6.355Y17.785
X6.355Y15.245
X6.355Y12.705
X6.355Y10.165
X6.355Y7.625
X15.875Y2.54
X21.595Y55.885
X21.595Y53.345
X21.595Y50.805
X21.595Y48.265
X21.595Y45.725
X21.595Y43.185
X21.595Y40.645
X21.595Y38.105
X21.595Y35.565
X21.595Y33.025
X21.595Y30.485
X21.595Y27.945
X21.595Y25.405
X21.595Y22.865
X21.595Y20.325
X21.595Y17.785
X21.595Y15.245
X21.595Y12.705
X21.595Y10.165
X21.595Y7.625
X26.035Y2.54
T2
X3.81Y55.875
X3.81Y53.335
X3.81Y50.795
X3.81Y48.255
X3.81Y45.715
X3.81Y43.175
X3.81Y40.635
X3.81Y38.095
X3.81Y35.555
X3.81Y33.015
X3.81Y30.475
X3.81Y27.935
X3.81Y25.395
X3.81Y22.855
X3.81Y20.315
X3.81Y17.775
X3.81Y15.235
X3.81Y12.695
X3.81Y10.155
X3.81Y7.615
X7.62Y62.865
X10.16Y62.865
X12.7Y62.865
X15.24Y62.865
X17.78Y62.865
X20.32Y62.865
X24.13Y55.875
X24.13Y53.335
X24.13Y50.795
X24.13Y48.255
X24.13Y45.715
X24.13Y43.175
X24.13Y40.635
X24.13Y38.095
X24.13Y35.555
X24.13Y33.015
X24.13Y30.475
X24.13Y27.935
X24.13Y25.395
X24.13Y22.855
X24.13Y20.315
X24.13Y17.775
X24.13Y15.235
X24.13Y12.695
X24.13Y10.155
X24.13Y7.615
T0
M30
