G04 #@! TF.GenerationSoftware,KiCad,Pcbnew,(6.0.7-1)-1*
G04 #@! TF.CreationDate,2022-09-28T23:36:56+09:00*
G04 #@! TF.ProjectId,MEZ8085,4d455a38-3038-4352-9e6b-696361645f70,A*
G04 #@! TF.SameCoordinates,PX5f5e100PY8f0d180*
G04 #@! TF.FileFunction,Soldermask,Bot*
G04 #@! TF.FilePolarity,Negative*
%FSLAX46Y46*%
G04 Gerber Fmt 4.6, Leading zero omitted, Abs format (unit mm)*
G04 Created by KiCad (PCBNEW (6.0.7-1)-1) date 2022-09-28 23:36:56*
%MOMM*%
%LPD*%
G01*
G04 APERTURE LIST*
%ADD10R,1.600000X1.600000*%
%ADD11O,1.600000X1.600000*%
%ADD12R,1.700000X1.700000*%
%ADD13O,1.700000X1.700000*%
%ADD14C,1.600000*%
G04 APERTURE END LIST*
D10*
X21595000Y7625000D03*
D11*
X21595000Y10165000D03*
X21595000Y12705000D03*
X21595000Y15245000D03*
X21595000Y17785000D03*
X21595000Y20325000D03*
X21595000Y22865000D03*
X21595000Y25405000D03*
X21595000Y27945000D03*
X21595000Y30485000D03*
X21595000Y33025000D03*
X21595000Y35565000D03*
X21595000Y38105000D03*
X21595000Y40645000D03*
X21595000Y43185000D03*
X21595000Y45725000D03*
X21595000Y48265000D03*
X21595000Y50805000D03*
X21595000Y53345000D03*
X21595000Y55885000D03*
X6355000Y55885000D03*
X6355000Y53345000D03*
X6355000Y50805000D03*
X6355000Y48265000D03*
X6355000Y45725000D03*
X6355000Y43185000D03*
X6355000Y40645000D03*
X6355000Y38105000D03*
X6355000Y35565000D03*
X6355000Y33025000D03*
X6355000Y30485000D03*
X6355000Y27945000D03*
X6355000Y25405000D03*
X6355000Y22865000D03*
X6355000Y20325000D03*
X6355000Y17785000D03*
X6355000Y15245000D03*
X6355000Y12705000D03*
X6355000Y10165000D03*
X6355000Y7625000D03*
D12*
X7620000Y62865000D03*
D13*
X10160000Y62865000D03*
X12700000Y62865000D03*
X15240000Y62865000D03*
X17780000Y62865000D03*
X20320000Y62865000D03*
D14*
X15875000Y2540000D03*
D11*
X26035000Y2540000D03*
D14*
X5060000Y2540000D03*
X2560000Y2540000D03*
D12*
X24130000Y55875000D03*
D13*
X24130000Y53335000D03*
X24130000Y50795000D03*
X24130000Y48255000D03*
X24130000Y45715000D03*
X24130000Y43175000D03*
X24130000Y40635000D03*
X24130000Y38095000D03*
X24130000Y35555000D03*
X24130000Y33015000D03*
X24130000Y30475000D03*
X24130000Y27935000D03*
X24130000Y25395000D03*
X24130000Y22855000D03*
X24130000Y20315000D03*
X24130000Y17775000D03*
X24130000Y15235000D03*
X24130000Y12695000D03*
X24130000Y10155000D03*
X24130000Y7615000D03*
D12*
X3810000Y55875000D03*
D13*
X3810000Y53335000D03*
X3810000Y50795000D03*
X3810000Y48255000D03*
X3810000Y45715000D03*
X3810000Y43175000D03*
X3810000Y40635000D03*
X3810000Y38095000D03*
X3810000Y35555000D03*
X3810000Y33015000D03*
X3810000Y30475000D03*
X3810000Y27935000D03*
X3810000Y25395000D03*
X3810000Y22855000D03*
X3810000Y20315000D03*
X3810000Y17775000D03*
X3810000Y15235000D03*
X3810000Y12695000D03*
X3810000Y10155000D03*
X3810000Y7615000D03*
M02*
