G04 #@! TF.GenerationSoftware,KiCad,Pcbnew,(6.0.7-1)-1*
G04 #@! TF.CreationDate,2022-09-28T23:36:56+09:00*
G04 #@! TF.ProjectId,MEZ8085,4d455a38-3038-4352-9e6b-696361645f70,A*
G04 #@! TF.SameCoordinates,PX5f5e100PY8f0d180*
G04 #@! TF.FileFunction,Legend,Bot*
G04 #@! TF.FilePolarity,Positive*
%FSLAX46Y46*%
G04 Gerber Fmt 4.6, Leading zero omitted, Abs format (unit mm)*
G04 Created by KiCad (PCBNEW (6.0.7-1)-1) date 2022-09-28 23:36:56*
%MOMM*%
%LPD*%
G01*
G04 APERTURE LIST*
%ADD10C,0.150000*%
%ADD11C,0.120000*%
G04 APERTURE END LIST*
D10*
X12812380Y34911667D02*
X11812380Y34911667D01*
X12526666Y34578334D01*
X11812380Y34245000D01*
X12812380Y34245000D01*
X12288571Y33768810D02*
X12288571Y33435477D01*
X12812380Y33292620D02*
X12812380Y33768810D01*
X11812380Y33768810D01*
X11812380Y33292620D01*
X11812380Y32959286D02*
X11812380Y32292620D01*
X12812380Y32959286D01*
X12812380Y32292620D01*
X12240952Y31768810D02*
X12193333Y31864048D01*
X12145714Y31911667D01*
X12050476Y31959286D01*
X12002857Y31959286D01*
X11907619Y31911667D01*
X11860000Y31864048D01*
X11812380Y31768810D01*
X11812380Y31578334D01*
X11860000Y31483096D01*
X11907619Y31435477D01*
X12002857Y31387858D01*
X12050476Y31387858D01*
X12145714Y31435477D01*
X12193333Y31483096D01*
X12240952Y31578334D01*
X12240952Y31768810D01*
X12288571Y31864048D01*
X12336190Y31911667D01*
X12431428Y31959286D01*
X12621904Y31959286D01*
X12717142Y31911667D01*
X12764761Y31864048D01*
X12812380Y31768810D01*
X12812380Y31578334D01*
X12764761Y31483096D01*
X12717142Y31435477D01*
X12621904Y31387858D01*
X12431428Y31387858D01*
X12336190Y31435477D01*
X12288571Y31483096D01*
X12240952Y31578334D01*
X11812380Y30768810D02*
X11812380Y30673572D01*
X11860000Y30578334D01*
X11907619Y30530715D01*
X12002857Y30483096D01*
X12193333Y30435477D01*
X12431428Y30435477D01*
X12621904Y30483096D01*
X12717142Y30530715D01*
X12764761Y30578334D01*
X12812380Y30673572D01*
X12812380Y30768810D01*
X12764761Y30864048D01*
X12717142Y30911667D01*
X12621904Y30959286D01*
X12431428Y31006905D01*
X12193333Y31006905D01*
X12002857Y30959286D01*
X11907619Y30911667D01*
X11860000Y30864048D01*
X11812380Y30768810D01*
X12240952Y29864048D02*
X12193333Y29959286D01*
X12145714Y30006905D01*
X12050476Y30054524D01*
X12002857Y30054524D01*
X11907619Y30006905D01*
X11860000Y29959286D01*
X11812380Y29864048D01*
X11812380Y29673572D01*
X11860000Y29578334D01*
X11907619Y29530715D01*
X12002857Y29483096D01*
X12050476Y29483096D01*
X12145714Y29530715D01*
X12193333Y29578334D01*
X12240952Y29673572D01*
X12240952Y29864048D01*
X12288571Y29959286D01*
X12336190Y30006905D01*
X12431428Y30054524D01*
X12621904Y30054524D01*
X12717142Y30006905D01*
X12764761Y29959286D01*
X12812380Y29864048D01*
X12812380Y29673572D01*
X12764761Y29578334D01*
X12717142Y29530715D01*
X12621904Y29483096D01*
X12431428Y29483096D01*
X12336190Y29530715D01*
X12288571Y29578334D01*
X12240952Y29673572D01*
X11812380Y28578334D02*
X11812380Y29054524D01*
X12288571Y29102143D01*
X12240952Y29054524D01*
X12193333Y28959286D01*
X12193333Y28721191D01*
X12240952Y28625953D01*
X12288571Y28578334D01*
X12383809Y28530715D01*
X12621904Y28530715D01*
X12717142Y28578334D01*
X12764761Y28625953D01*
X12812380Y28721191D01*
X12812380Y28959286D01*
X12764761Y29054524D01*
X12717142Y29102143D01*
X13850952Y44768810D02*
X13803333Y44864048D01*
X13755714Y44911667D01*
X13660476Y44959286D01*
X13612857Y44959286D01*
X13517619Y44911667D01*
X13470000Y44864048D01*
X13422380Y44768810D01*
X13422380Y44578334D01*
X13470000Y44483096D01*
X13517619Y44435477D01*
X13612857Y44387858D01*
X13660476Y44387858D01*
X13755714Y44435477D01*
X13803333Y44483096D01*
X13850952Y44578334D01*
X13850952Y44768810D01*
X13898571Y44864048D01*
X13946190Y44911667D01*
X14041428Y44959286D01*
X14231904Y44959286D01*
X14327142Y44911667D01*
X14374761Y44864048D01*
X14422380Y44768810D01*
X14422380Y44578334D01*
X14374761Y44483096D01*
X14327142Y44435477D01*
X14231904Y44387858D01*
X14041428Y44387858D01*
X13946190Y44435477D01*
X13898571Y44483096D01*
X13850952Y44578334D01*
X13422380Y43768810D02*
X13422380Y43673572D01*
X13470000Y43578334D01*
X13517619Y43530715D01*
X13612857Y43483096D01*
X13803333Y43435477D01*
X14041428Y43435477D01*
X14231904Y43483096D01*
X14327142Y43530715D01*
X14374761Y43578334D01*
X14422380Y43673572D01*
X14422380Y43768810D01*
X14374761Y43864048D01*
X14327142Y43911667D01*
X14231904Y43959286D01*
X14041428Y44006905D01*
X13803333Y44006905D01*
X13612857Y43959286D01*
X13517619Y43911667D01*
X13470000Y43864048D01*
X13422380Y43768810D01*
X13850952Y42864048D02*
X13803333Y42959286D01*
X13755714Y43006905D01*
X13660476Y43054524D01*
X13612857Y43054524D01*
X13517619Y43006905D01*
X13470000Y42959286D01*
X13422380Y42864048D01*
X13422380Y42673572D01*
X13470000Y42578334D01*
X13517619Y42530715D01*
X13612857Y42483096D01*
X13660476Y42483096D01*
X13755714Y42530715D01*
X13803333Y42578334D01*
X13850952Y42673572D01*
X13850952Y42864048D01*
X13898571Y42959286D01*
X13946190Y43006905D01*
X14041428Y43054524D01*
X14231904Y43054524D01*
X14327142Y43006905D01*
X14374761Y42959286D01*
X14422380Y42864048D01*
X14422380Y42673572D01*
X14374761Y42578334D01*
X14327142Y42530715D01*
X14231904Y42483096D01*
X14041428Y42483096D01*
X13946190Y42530715D01*
X13898571Y42578334D01*
X13850952Y42673572D01*
X13422380Y41578334D02*
X13422380Y42054524D01*
X13898571Y42102143D01*
X13850952Y42054524D01*
X13803333Y41959286D01*
X13803333Y41721191D01*
X13850952Y41625953D01*
X13898571Y41578334D01*
X13993809Y41530715D01*
X14231904Y41530715D01*
X14327142Y41578334D01*
X14374761Y41625953D01*
X14422380Y41721191D01*
X14422380Y41959286D01*
X14374761Y42054524D01*
X14327142Y42102143D01*
X14422380Y40340239D02*
X13422380Y40340239D01*
X14136666Y40006905D01*
X13422380Y39673572D01*
X14422380Y39673572D01*
X14374761Y38816429D02*
X14422380Y38911667D01*
X14422380Y39102143D01*
X14374761Y39197381D01*
X14279523Y39245000D01*
X13898571Y39245000D01*
X13803333Y39197381D01*
X13755714Y39102143D01*
X13755714Y38911667D01*
X13803333Y38816429D01*
X13898571Y38768810D01*
X13993809Y38768810D01*
X14089047Y39245000D01*
X13755714Y38435477D02*
X13755714Y37911667D01*
X14422380Y38435477D01*
X14422380Y37911667D01*
X13755714Y37625953D02*
X13755714Y37102143D01*
X14422380Y37625953D01*
X14422380Y37102143D01*
X14422380Y36292620D02*
X13898571Y36292620D01*
X13803333Y36340239D01*
X13755714Y36435477D01*
X13755714Y36625953D01*
X13803333Y36721191D01*
X14374761Y36292620D02*
X14422380Y36387858D01*
X14422380Y36625953D01*
X14374761Y36721191D01*
X14279523Y36768810D01*
X14184285Y36768810D01*
X14089047Y36721191D01*
X14041428Y36625953D01*
X14041428Y36387858D01*
X13993809Y36292620D01*
X13755714Y35816429D02*
X14422380Y35816429D01*
X13850952Y35816429D02*
X13803333Y35768810D01*
X13755714Y35673572D01*
X13755714Y35530715D01*
X13803333Y35435477D01*
X13898571Y35387858D01*
X14422380Y35387858D01*
X14422380Y34911667D02*
X13755714Y34911667D01*
X13422380Y34911667D02*
X13470000Y34959286D01*
X13517619Y34911667D01*
X13470000Y34864048D01*
X13422380Y34911667D01*
X13517619Y34911667D01*
X13755714Y34435477D02*
X14422380Y34435477D01*
X13850952Y34435477D02*
X13803333Y34387858D01*
X13755714Y34292620D01*
X13755714Y34149762D01*
X13803333Y34054524D01*
X13898571Y34006905D01*
X14422380Y34006905D01*
X14374761Y33149762D02*
X14422380Y33245001D01*
X14422380Y33435477D01*
X14374761Y33530715D01*
X14279523Y33578334D01*
X13898571Y33578334D01*
X13803333Y33530715D01*
X13755714Y33435477D01*
X13755714Y33245001D01*
X13803333Y33149762D01*
X13898571Y33102143D01*
X13993809Y33102143D01*
X14089047Y33578334D01*
X14422380Y31911667D02*
X13422380Y31911667D01*
X13803333Y31911667D02*
X13755714Y31816429D01*
X13755714Y31625953D01*
X13803333Y31530715D01*
X13850952Y31483096D01*
X13946190Y31435477D01*
X14231904Y31435477D01*
X14327142Y31483096D01*
X14374761Y31530715D01*
X14422380Y31625953D01*
X14422380Y31816429D01*
X14374761Y31911667D01*
X14422380Y30864048D02*
X14374761Y30959286D01*
X14327142Y31006905D01*
X14231904Y31054524D01*
X13946190Y31054524D01*
X13850952Y31006905D01*
X13803333Y30959286D01*
X13755714Y30864048D01*
X13755714Y30721191D01*
X13803333Y30625953D01*
X13850952Y30578334D01*
X13946190Y30530715D01*
X14231904Y30530715D01*
X14327142Y30578334D01*
X14374761Y30625953D01*
X14422380Y30721191D01*
X14422380Y30864048D01*
X14422380Y29673572D02*
X13898571Y29673572D01*
X13803333Y29721191D01*
X13755714Y29816429D01*
X13755714Y30006905D01*
X13803333Y30102143D01*
X14374761Y29673572D02*
X14422380Y29768810D01*
X14422380Y30006905D01*
X14374761Y30102143D01*
X14279523Y30149762D01*
X14184285Y30149762D01*
X14089047Y30102143D01*
X14041428Y30006905D01*
X14041428Y29768810D01*
X13993809Y29673572D01*
X14422380Y29197381D02*
X13755714Y29197381D01*
X13946190Y29197381D02*
X13850952Y29149762D01*
X13803333Y29102143D01*
X13755714Y29006905D01*
X13755714Y28911667D01*
X14422380Y28149762D02*
X13422380Y28149762D01*
X14374761Y28149762D02*
X14422380Y28245001D01*
X14422380Y28435477D01*
X14374761Y28530715D01*
X14327142Y28578334D01*
X14231904Y28625953D01*
X13946190Y28625953D01*
X13850952Y28578334D01*
X13803333Y28530715D01*
X13755714Y28435477D01*
X13755714Y28245001D01*
X13803333Y28149762D01*
X13755714Y27054524D02*
X13755714Y26673572D01*
X14422380Y26911667D02*
X13565238Y26911667D01*
X13470000Y26864048D01*
X13422380Y26768810D01*
X13422380Y26673572D01*
X14422380Y26197381D02*
X14374761Y26292620D01*
X14327142Y26340239D01*
X14231904Y26387858D01*
X13946190Y26387858D01*
X13850952Y26340239D01*
X13803333Y26292620D01*
X13755714Y26197381D01*
X13755714Y26054524D01*
X13803333Y25959286D01*
X13850952Y25911667D01*
X13946190Y25864048D01*
X14231904Y25864048D01*
X14327142Y25911667D01*
X14374761Y25959286D01*
X14422380Y26054524D01*
X14422380Y26197381D01*
X14422380Y25435477D02*
X13755714Y25435477D01*
X13946190Y25435477D02*
X13850952Y25387858D01*
X13803333Y25340239D01*
X13755714Y25245001D01*
X13755714Y25149762D01*
X13898571Y24054524D02*
X13898571Y23721191D01*
X14422380Y23578334D02*
X14422380Y24054524D01*
X13422380Y24054524D01*
X13422380Y23578334D01*
X14422380Y23149762D02*
X13422380Y23149762D01*
X14136666Y22816429D01*
X13422380Y22483096D01*
X14422380Y22483096D01*
X13422380Y22006905D02*
X14231904Y22006905D01*
X14327142Y21959286D01*
X14374761Y21911667D01*
X14422380Y21816429D01*
X14422380Y21625953D01*
X14374761Y21530715D01*
X14327142Y21483096D01*
X14231904Y21435477D01*
X13422380Y21435477D01*
X13422380Y21054524D02*
X13422380Y20387858D01*
X14422380Y21054524D01*
X14422380Y20387858D01*
X13850952Y19864048D02*
X13803333Y19959286D01*
X13755714Y20006905D01*
X13660476Y20054524D01*
X13612857Y20054524D01*
X13517619Y20006905D01*
X13470000Y19959286D01*
X13422380Y19864048D01*
X13422380Y19673572D01*
X13470000Y19578334D01*
X13517619Y19530715D01*
X13612857Y19483096D01*
X13660476Y19483096D01*
X13755714Y19530715D01*
X13803333Y19578334D01*
X13850952Y19673572D01*
X13850952Y19864048D01*
X13898571Y19959286D01*
X13946190Y20006905D01*
X14041428Y20054524D01*
X14231904Y20054524D01*
X14327142Y20006905D01*
X14374761Y19959286D01*
X14422380Y19864048D01*
X14422380Y19673572D01*
X14374761Y19578334D01*
X14327142Y19530715D01*
X14231904Y19483096D01*
X14041428Y19483096D01*
X13946190Y19530715D01*
X13898571Y19578334D01*
X13850952Y19673572D01*
X13422380Y18864048D02*
X13422380Y18768810D01*
X13470000Y18673572D01*
X13517619Y18625953D01*
X13612857Y18578334D01*
X13803333Y18530715D01*
X14041428Y18530715D01*
X14231904Y18578334D01*
X14327142Y18625953D01*
X14374761Y18673572D01*
X14422380Y18768810D01*
X14422380Y18864048D01*
X14374761Y18959286D01*
X14327142Y19006905D01*
X14231904Y19054524D01*
X14041428Y19102143D01*
X13803333Y19102143D01*
X13612857Y19054524D01*
X13517619Y19006905D01*
X13470000Y18959286D01*
X13422380Y18864048D01*
X16032380Y47673572D02*
X15032380Y47673572D01*
X16032380Y47245000D02*
X15508571Y47245000D01*
X15413333Y47292620D01*
X15365714Y47387858D01*
X15365714Y47530715D01*
X15413333Y47625953D01*
X15460952Y47673572D01*
X15365714Y46911667D02*
X15365714Y46530715D01*
X15032380Y46768810D02*
X15889523Y46768810D01*
X15984761Y46721191D01*
X16032380Y46625953D01*
X16032380Y46530715D01*
X15365714Y46340239D02*
X15365714Y45959286D01*
X15032380Y46197381D02*
X15889523Y46197381D01*
X15984761Y46149762D01*
X16032380Y46054524D01*
X16032380Y45959286D01*
X15365714Y45625953D02*
X16365714Y45625953D01*
X15413333Y45625953D02*
X15365714Y45530715D01*
X15365714Y45340239D01*
X15413333Y45245000D01*
X15460952Y45197381D01*
X15556190Y45149762D01*
X15841904Y45149762D01*
X15937142Y45197381D01*
X15984761Y45245000D01*
X16032380Y45340239D01*
X16032380Y45530715D01*
X15984761Y45625953D01*
X15984761Y44768810D02*
X16032380Y44673572D01*
X16032380Y44483096D01*
X15984761Y44387858D01*
X15889523Y44340239D01*
X15841904Y44340239D01*
X15746666Y44387858D01*
X15699047Y44483096D01*
X15699047Y44625953D01*
X15651428Y44721191D01*
X15556190Y44768810D01*
X15508571Y44768810D01*
X15413333Y44721191D01*
X15365714Y44625953D01*
X15365714Y44483096D01*
X15413333Y44387858D01*
X15937142Y43911667D02*
X15984761Y43864048D01*
X16032380Y43911667D01*
X15984761Y43959286D01*
X15937142Y43911667D01*
X16032380Y43911667D01*
X15413333Y43911667D02*
X15460952Y43864048D01*
X15508571Y43911667D01*
X15460952Y43959286D01*
X15413333Y43911667D01*
X15508571Y43911667D01*
X14984761Y42721191D02*
X16270476Y43578334D01*
X14984761Y41673572D02*
X16270476Y42530715D01*
X15365714Y40911667D02*
X16175238Y40911667D01*
X16270476Y40959286D01*
X16318095Y41006905D01*
X16365714Y41102143D01*
X16365714Y41245000D01*
X16318095Y41340239D01*
X15984761Y40911667D02*
X16032380Y41006905D01*
X16032380Y41197381D01*
X15984761Y41292620D01*
X15937142Y41340239D01*
X15841904Y41387858D01*
X15556190Y41387858D01*
X15460952Y41340239D01*
X15413333Y41292620D01*
X15365714Y41197381D01*
X15365714Y41006905D01*
X15413333Y40911667D01*
X16032380Y40435477D02*
X15365714Y40435477D01*
X15032380Y40435477D02*
X15080000Y40483096D01*
X15127619Y40435477D01*
X15080000Y40387858D01*
X15032380Y40435477D01*
X15127619Y40435477D01*
X15365714Y40102143D02*
X15365714Y39721191D01*
X15032380Y39959286D02*
X15889523Y39959286D01*
X15984761Y39911667D01*
X16032380Y39816429D01*
X16032380Y39721191D01*
X16032380Y39387858D02*
X15032380Y39387858D01*
X16032380Y38959286D02*
X15508571Y38959286D01*
X15413333Y39006905D01*
X15365714Y39102143D01*
X15365714Y39245000D01*
X15413333Y39340239D01*
X15460952Y39387858D01*
X15365714Y38054524D02*
X16032380Y38054524D01*
X15365714Y38483096D02*
X15889523Y38483096D01*
X15984761Y38435477D01*
X16032380Y38340239D01*
X16032380Y38197381D01*
X15984761Y38102143D01*
X15937142Y38054524D01*
X16032380Y37578334D02*
X15032380Y37578334D01*
X15413333Y37578334D02*
X15365714Y37483096D01*
X15365714Y37292620D01*
X15413333Y37197381D01*
X15460952Y37149762D01*
X15556190Y37102143D01*
X15841904Y37102143D01*
X15937142Y37149762D01*
X15984761Y37197381D01*
X16032380Y37292620D01*
X16032380Y37483096D01*
X15984761Y37578334D01*
X15937142Y36673572D02*
X15984761Y36625953D01*
X16032380Y36673572D01*
X15984761Y36721191D01*
X15937142Y36673572D01*
X16032380Y36673572D01*
X15984761Y35768810D02*
X16032380Y35864048D01*
X16032380Y36054524D01*
X15984761Y36149762D01*
X15937142Y36197381D01*
X15841904Y36245000D01*
X15556190Y36245000D01*
X15460952Y36197381D01*
X15413333Y36149762D01*
X15365714Y36054524D01*
X15365714Y35864048D01*
X15413333Y35768810D01*
X16032380Y35197381D02*
X15984761Y35292620D01*
X15937142Y35340239D01*
X15841904Y35387858D01*
X15556190Y35387858D01*
X15460952Y35340239D01*
X15413333Y35292620D01*
X15365714Y35197381D01*
X15365714Y35054524D01*
X15413333Y34959286D01*
X15460952Y34911667D01*
X15556190Y34864048D01*
X15841904Y34864048D01*
X15937142Y34911667D01*
X15984761Y34959286D01*
X16032380Y35054524D01*
X16032380Y35197381D01*
X16032380Y34435477D02*
X15365714Y34435477D01*
X15460952Y34435477D02*
X15413333Y34387858D01*
X15365714Y34292620D01*
X15365714Y34149762D01*
X15413333Y34054524D01*
X15508571Y34006905D01*
X16032380Y34006905D01*
X15508571Y34006905D02*
X15413333Y33959286D01*
X15365714Y33864048D01*
X15365714Y33721191D01*
X15413333Y33625953D01*
X15508571Y33578334D01*
X16032380Y33578334D01*
X14984761Y32387858D02*
X16270476Y33245000D01*
X15984761Y32102143D02*
X16032380Y32006905D01*
X16032380Y31816429D01*
X15984761Y31721191D01*
X15889523Y31673572D01*
X15841904Y31673572D01*
X15746666Y31721191D01*
X15699047Y31816429D01*
X15699047Y31959286D01*
X15651428Y32054524D01*
X15556190Y32102143D01*
X15508571Y32102143D01*
X15413333Y32054524D01*
X15365714Y31959286D01*
X15365714Y31816429D01*
X15413333Y31721191D01*
X16032380Y30816429D02*
X15508571Y30816429D01*
X15413333Y30864048D01*
X15365714Y30959286D01*
X15365714Y31149762D01*
X15413333Y31245000D01*
X15984761Y30816429D02*
X16032380Y30911667D01*
X16032380Y31149762D01*
X15984761Y31245000D01*
X15889523Y31292620D01*
X15794285Y31292620D01*
X15699047Y31245000D01*
X15651428Y31149762D01*
X15651428Y30911667D01*
X15603809Y30816429D01*
X15365714Y30483096D02*
X15365714Y30102143D01*
X15032380Y30340239D02*
X15889523Y30340239D01*
X15984761Y30292620D01*
X16032380Y30197381D01*
X16032380Y30102143D01*
X16032380Y29625953D02*
X15984761Y29721191D01*
X15937142Y29768810D01*
X15841904Y29816429D01*
X15556190Y29816429D01*
X15460952Y29768810D01*
X15413333Y29721191D01*
X15365714Y29625953D01*
X15365714Y29483096D01*
X15413333Y29387858D01*
X15460952Y29340239D01*
X15556190Y29292620D01*
X15841904Y29292620D01*
X15937142Y29340239D01*
X15984761Y29387858D01*
X16032380Y29483096D01*
X16032380Y29625953D01*
X15984761Y28911667D02*
X16032380Y28816429D01*
X16032380Y28625953D01*
X15984761Y28530715D01*
X15889523Y28483096D01*
X15841904Y28483096D01*
X15746666Y28530715D01*
X15699047Y28625953D01*
X15699047Y28768810D01*
X15651428Y28864048D01*
X15556190Y28911667D01*
X15508571Y28911667D01*
X15413333Y28864048D01*
X15365714Y28768810D01*
X15365714Y28625953D01*
X15413333Y28530715D01*
X16032380Y28054524D02*
X15032380Y28054524D01*
X16032380Y27625953D02*
X15508571Y27625953D01*
X15413333Y27673572D01*
X15365714Y27768810D01*
X15365714Y27911667D01*
X15413333Y28006905D01*
X15460952Y28054524D01*
X16032380Y27149762D02*
X15365714Y27149762D01*
X15032380Y27149762D02*
X15080000Y27197381D01*
X15127619Y27149762D01*
X15080000Y27102143D01*
X15032380Y27149762D01*
X15127619Y27149762D01*
X16032380Y26530715D02*
X15984761Y26625953D01*
X15937142Y26673572D01*
X15841904Y26721191D01*
X15556190Y26721191D01*
X15460952Y26673572D01*
X15413333Y26625953D01*
X15365714Y26530715D01*
X15365714Y26387858D01*
X15413333Y26292620D01*
X15460952Y26245000D01*
X15556190Y26197381D01*
X15841904Y26197381D01*
X15937142Y26245000D01*
X15984761Y26292620D01*
X16032380Y26387858D01*
X16032380Y26530715D01*
X16032380Y25768810D02*
X15032380Y25768810D01*
X15651428Y25673572D02*
X16032380Y25387858D01*
X15365714Y25387858D02*
X15746666Y25768810D01*
X15365714Y24530715D02*
X16032380Y24530715D01*
X15365714Y24959286D02*
X15889523Y24959286D01*
X15984761Y24911667D01*
X16032380Y24816429D01*
X16032380Y24673572D01*
X15984761Y24578334D01*
X15937142Y24530715D01*
X15984761Y23673572D02*
X16032380Y23768810D01*
X16032380Y23959286D01*
X15984761Y24054524D01*
X15889523Y24102143D01*
X15508571Y24102143D01*
X15413333Y24054524D01*
X15365714Y23959286D01*
X15365714Y23768810D01*
X15413333Y23673572D01*
X15508571Y23625953D01*
X15603809Y23625953D01*
X15699047Y24102143D01*
X14984761Y22483096D02*
X16270476Y23340239D01*
X16032380Y22149762D02*
X15032380Y22149762D01*
X15746666Y21816429D01*
X15032380Y21483096D01*
X16032380Y21483096D01*
X15508571Y21006905D02*
X15508571Y20673572D01*
X16032380Y20530715D02*
X16032380Y21006905D01*
X15032380Y21006905D01*
X15032380Y20530715D01*
X15032380Y20197381D02*
X15032380Y19530715D01*
X16032380Y20197381D01*
X16032380Y19530715D01*
X15460952Y19006905D02*
X15413333Y19102143D01*
X15365714Y19149762D01*
X15270476Y19197381D01*
X15222857Y19197381D01*
X15127619Y19149762D01*
X15080000Y19102143D01*
X15032380Y19006905D01*
X15032380Y18816429D01*
X15080000Y18721191D01*
X15127619Y18673572D01*
X15222857Y18625953D01*
X15270476Y18625953D01*
X15365714Y18673572D01*
X15413333Y18721191D01*
X15460952Y18816429D01*
X15460952Y19006905D01*
X15508571Y19102143D01*
X15556190Y19149762D01*
X15651428Y19197381D01*
X15841904Y19197381D01*
X15937142Y19149762D01*
X15984761Y19102143D01*
X16032380Y19006905D01*
X16032380Y18816429D01*
X15984761Y18721191D01*
X15937142Y18673572D01*
X15841904Y18625953D01*
X15651428Y18625953D01*
X15556190Y18673572D01*
X15508571Y18721191D01*
X15460952Y18816429D01*
X15032380Y18006905D02*
X15032380Y17911667D01*
X15080000Y17816429D01*
X15127619Y17768810D01*
X15222857Y17721191D01*
X15413333Y17673572D01*
X15651428Y17673572D01*
X15841904Y17721191D01*
X15937142Y17768810D01*
X15984761Y17816429D01*
X16032380Y17911667D01*
X16032380Y18006905D01*
X15984761Y18102143D01*
X15937142Y18149762D01*
X15841904Y18197381D01*
X15651428Y18245000D01*
X15413333Y18245000D01*
X15222857Y18197381D01*
X15127619Y18149762D01*
X15080000Y18102143D01*
X15032380Y18006905D01*
X15460952Y17102143D02*
X15413333Y17197381D01*
X15365714Y17245000D01*
X15270476Y17292620D01*
X15222857Y17292620D01*
X15127619Y17245000D01*
X15080000Y17197381D01*
X15032380Y17102143D01*
X15032380Y16911667D01*
X15080000Y16816429D01*
X15127619Y16768810D01*
X15222857Y16721191D01*
X15270476Y16721191D01*
X15365714Y16768810D01*
X15413333Y16816429D01*
X15460952Y16911667D01*
X15460952Y17102143D01*
X15508571Y17197381D01*
X15556190Y17245000D01*
X15651428Y17292620D01*
X15841904Y17292620D01*
X15937142Y17245000D01*
X15984761Y17197381D01*
X16032380Y17102143D01*
X16032380Y16911667D01*
X15984761Y16816429D01*
X15937142Y16768810D01*
X15841904Y16721191D01*
X15651428Y16721191D01*
X15556190Y16768810D01*
X15508571Y16816429D01*
X15460952Y16911667D01*
X15032380Y15816429D02*
X15032380Y16292620D01*
X15508571Y16340239D01*
X15460952Y16292620D01*
X15413333Y16197381D01*
X15413333Y15959286D01*
X15460952Y15864048D01*
X15508571Y15816429D01*
X15603809Y15768810D01*
X15841904Y15768810D01*
X15937142Y15816429D01*
X15984761Y15864048D01*
X16032380Y15959286D01*
X16032380Y16197381D01*
X15984761Y16292620D01*
X15937142Y16340239D01*
X24463333Y58752620D02*
X24463333Y58038334D01*
X24510952Y57895477D01*
X24606190Y57800239D01*
X24749047Y57752620D01*
X24844285Y57752620D01*
X24034761Y58657381D02*
X23987142Y58705000D01*
X23891904Y58752620D01*
X23653809Y58752620D01*
X23558571Y58705000D01*
X23510952Y58657381D01*
X23463333Y58562143D01*
X23463333Y58466905D01*
X23510952Y58324048D01*
X24082380Y57752620D01*
X23463333Y57752620D01*
X4143333Y58752620D02*
X4143333Y58038334D01*
X4190952Y57895477D01*
X4286190Y57800239D01*
X4429047Y57752620D01*
X4524285Y57752620D01*
X3143333Y57752620D02*
X3714761Y57752620D01*
X3429047Y57752620D02*
X3429047Y58752620D01*
X3524285Y58609762D01*
X3619523Y58514524D01*
X3714761Y58466905D01*
D11*
X25460000Y55875000D02*
X25460000Y57205000D01*
X22800000Y54605000D02*
X22800000Y6285000D01*
X25460000Y57205000D02*
X24130000Y57205000D01*
X25460000Y54605000D02*
X25460000Y6285000D01*
X25460000Y6285000D02*
X22800000Y6285000D01*
X25460000Y54605000D02*
X22800000Y54605000D01*
X5140000Y54605000D02*
X2480000Y54605000D01*
X5140000Y54605000D02*
X5140000Y6285000D01*
X5140000Y6285000D02*
X2480000Y6285000D01*
X5140000Y55875000D02*
X5140000Y57205000D01*
X5140000Y57205000D02*
X3810000Y57205000D01*
X2480000Y54605000D02*
X2480000Y6285000D01*
M02*
