G04 #@! TF.GenerationSoftware,KiCad,Pcbnew,(6.0.7-1)-1*
G04 #@! TF.CreationDate,2022-09-28T23:36:56+09:00*
G04 #@! TF.ProjectId,MEZ8085,4d455a38-3038-4352-9e6b-696361645f70,A*
G04 #@! TF.SameCoordinates,PX5f5e100PY8f0d180*
G04 #@! TF.FileFunction,Copper,L2,Bot*
G04 #@! TF.FilePolarity,Positive*
%FSLAX46Y46*%
G04 Gerber Fmt 4.6, Leading zero omitted, Abs format (unit mm)*
G04 Created by KiCad (PCBNEW (6.0.7-1)-1) date 2022-09-28 23:36:56*
%MOMM*%
%LPD*%
G01*
G04 APERTURE LIST*
G04 #@! TA.AperFunction,ComponentPad*
%ADD10R,1.600000X1.600000*%
G04 #@! TD*
G04 #@! TA.AperFunction,ComponentPad*
%ADD11O,1.600000X1.600000*%
G04 #@! TD*
G04 #@! TA.AperFunction,ComponentPad*
%ADD12R,1.700000X1.700000*%
G04 #@! TD*
G04 #@! TA.AperFunction,ComponentPad*
%ADD13O,1.700000X1.700000*%
G04 #@! TD*
G04 #@! TA.AperFunction,ComponentPad*
%ADD14C,1.600000*%
G04 #@! TD*
G04 #@! TA.AperFunction,Conductor*
%ADD15C,0.152400*%
G04 #@! TD*
G04 APERTURE END LIST*
D10*
X21595000Y7625000D03*
D11*
X21595000Y10165000D03*
X21595000Y12705000D03*
X21595000Y15245000D03*
X21595000Y17785000D03*
X21595000Y20325000D03*
X21595000Y22865000D03*
X21595000Y25405000D03*
X21595000Y27945000D03*
X21595000Y30485000D03*
X21595000Y33025000D03*
X21595000Y35565000D03*
X21595000Y38105000D03*
X21595000Y40645000D03*
X21595000Y43185000D03*
X21595000Y45725000D03*
X21595000Y48265000D03*
X21595000Y50805000D03*
X21595000Y53345000D03*
X21595000Y55885000D03*
X6355000Y55885000D03*
X6355000Y53345000D03*
X6355000Y50805000D03*
X6355000Y48265000D03*
X6355000Y45725000D03*
X6355000Y43185000D03*
X6355000Y40645000D03*
X6355000Y38105000D03*
X6355000Y35565000D03*
X6355000Y33025000D03*
X6355000Y30485000D03*
X6355000Y27945000D03*
X6355000Y25405000D03*
X6355000Y22865000D03*
X6355000Y20325000D03*
X6355000Y17785000D03*
X6355000Y15245000D03*
X6355000Y12705000D03*
X6355000Y10165000D03*
X6355000Y7625000D03*
D12*
X7620000Y62865000D03*
D13*
X10160000Y62865000D03*
X12700000Y62865000D03*
X15240000Y62865000D03*
X17780000Y62865000D03*
X20320000Y62865000D03*
D14*
X15875000Y2540000D03*
D11*
X26035000Y2540000D03*
D14*
X5060000Y2540000D03*
X2560000Y2540000D03*
D12*
X24130000Y55875000D03*
D13*
X24130000Y53335000D03*
X24130000Y50795000D03*
X24130000Y48255000D03*
X24130000Y45715000D03*
X24130000Y43175000D03*
X24130000Y40635000D03*
X24130000Y38095000D03*
X24130000Y35555000D03*
X24130000Y33015000D03*
X24130000Y30475000D03*
X24130000Y27935000D03*
X24130000Y25395000D03*
X24130000Y22855000D03*
X24130000Y20315000D03*
X24130000Y17775000D03*
X24130000Y15235000D03*
X24130000Y12695000D03*
X24130000Y10155000D03*
X24130000Y7615000D03*
D12*
X3810000Y55875000D03*
D13*
X3810000Y53335000D03*
X3810000Y50795000D03*
X3810000Y48255000D03*
X3810000Y45715000D03*
X3810000Y43175000D03*
X3810000Y40635000D03*
X3810000Y38095000D03*
X3810000Y35555000D03*
X3810000Y33015000D03*
X3810000Y30475000D03*
X3810000Y27935000D03*
X3810000Y25395000D03*
X3810000Y22855000D03*
X3810000Y20315000D03*
X3810000Y17775000D03*
X3810000Y15235000D03*
X3810000Y12695000D03*
X3810000Y10155000D03*
X3810000Y7615000D03*
D15*
X3810000Y50795000D02*
X3810000Y49716100D01*
X5194100Y48466900D02*
X5194100Y45374800D01*
X6355000Y43185000D02*
X6355000Y44213900D01*
X3810000Y49716100D02*
X3944900Y49716100D01*
X3944900Y49716100D02*
X5194100Y48466900D01*
X5194100Y45374800D02*
X6355000Y44213900D01*
X3945000Y47176100D02*
X4888900Y46232200D01*
X3810000Y47176100D02*
X3945000Y47176100D01*
X4888900Y46232200D02*
X4888900Y43140000D01*
X6355000Y40645000D02*
X6355000Y41673900D01*
X3810000Y48255000D02*
X3810000Y47176100D01*
X4888900Y43140000D02*
X6355000Y41673900D01*
X3810000Y42096100D02*
X3675100Y42096100D01*
X3810000Y43175000D02*
X3810000Y42096100D01*
X6355000Y33025000D02*
X5326100Y33025000D01*
X4218600Y34132500D02*
X5326100Y33025000D01*
X2410800Y34968600D02*
X3246900Y34132500D01*
X3246900Y34132500D02*
X4218600Y34132500D01*
X3675100Y42096100D02*
X2410800Y40831800D01*
X2410800Y40831800D02*
X2410800Y34968600D01*
X6355000Y24376100D02*
X5326100Y23347200D01*
X5326100Y22798200D02*
X3921800Y21393900D01*
X3810000Y20315000D02*
X3810000Y21393900D01*
X5326100Y23347200D02*
X5326100Y22798200D01*
X6355000Y25405000D02*
X6355000Y24376100D01*
X3921800Y21393900D02*
X3810000Y21393900D01*
X24130000Y25395000D02*
X24130000Y24316100D01*
X22003000Y19274100D02*
X10974800Y19274100D01*
X23995000Y24316100D02*
X23051100Y23372200D01*
X10974800Y19274100D02*
X7383900Y22865000D01*
X24130000Y24316100D02*
X23995000Y24316100D01*
X6355000Y22865000D02*
X7383900Y22865000D01*
X23051100Y20322200D02*
X22003000Y19274100D01*
X23051100Y23372200D02*
X23051100Y20322200D01*
X24130000Y15235000D02*
X23051100Y15235000D01*
X23051100Y15235000D02*
X23051100Y15370000D01*
X6355000Y20325000D02*
X7383900Y20325000D01*
X22107200Y16313900D02*
X11395000Y16313900D01*
X23051100Y15370000D02*
X22107200Y16313900D01*
X11395000Y16313900D02*
X7383900Y20325000D01*
X6355000Y17785000D02*
X5326100Y17785000D01*
X5316100Y17775000D02*
X5326100Y17785000D01*
X3810000Y17775000D02*
X5316100Y17775000D01*
X24130000Y54796100D02*
X24264900Y54796100D01*
X24264900Y54796100D02*
X25249000Y53812000D01*
X25249000Y53812000D02*
X25249000Y50321800D01*
X25249000Y50321800D02*
X24632000Y49704800D01*
X6355000Y50805000D02*
X7383900Y50805000D01*
X8484100Y49704800D02*
X7383900Y50805000D01*
X24130000Y55875000D02*
X24130000Y54796100D01*
X24632000Y49704800D02*
X8484100Y49704800D01*
X22138300Y54378300D02*
X8417200Y54378300D01*
X8417200Y54378300D02*
X7383900Y53345000D01*
X23051100Y53335000D02*
X23051100Y53465500D01*
X6355000Y53345000D02*
X7383900Y53345000D01*
X24130000Y53335000D02*
X23051100Y53335000D01*
X23051100Y53465500D02*
X22138300Y54378300D01*
X5907500Y52316000D02*
X21641900Y52316000D01*
X24130000Y50795000D02*
X23051100Y50795000D01*
X6355000Y55885000D02*
X6355000Y54856100D01*
X21641900Y52316000D02*
X23051100Y50906800D01*
X6355000Y54856100D02*
X5304700Y53805800D01*
X5304700Y52918800D02*
X5907500Y52316000D01*
X5304700Y53805800D02*
X5304700Y52918800D01*
X23051100Y50906800D02*
X23051100Y50795000D01*
X23051100Y45197800D02*
X23051100Y45780000D01*
X24130000Y43175000D02*
X24130000Y44253900D01*
X23995000Y44253900D02*
X23051100Y45197800D01*
X21595000Y48265000D02*
X21595000Y47236100D01*
X23051100Y45780000D02*
X21595000Y47236100D01*
X24130000Y44253900D02*
X23995000Y44253900D01*
X24130000Y40635000D02*
X24130000Y41713900D01*
X23051100Y43240000D02*
X21595000Y44696100D01*
X24130000Y41713900D02*
X23995000Y41713900D01*
X23051100Y42657800D02*
X23051100Y43240000D01*
X23995000Y41713900D02*
X23051100Y42657800D01*
X21595000Y45725000D02*
X21595000Y44696100D01*
X21595000Y43185000D02*
X21595000Y42156100D01*
X24130000Y38095000D02*
X24130000Y39173900D01*
X24130000Y39173900D02*
X23995000Y39173900D01*
X23051100Y40117800D02*
X23051100Y40700000D01*
X23995000Y39173900D02*
X23051100Y40117800D01*
X23051100Y40700000D02*
X21595000Y42156100D01*
X23051100Y37577800D02*
X23051100Y38160000D01*
X21595000Y40645000D02*
X21595000Y39616100D01*
X23995000Y36633900D02*
X23051100Y37577800D01*
X24130000Y35555000D02*
X24130000Y36633900D01*
X23051100Y38160000D02*
X21595000Y39616100D01*
X24130000Y36633900D02*
X23995000Y36633900D01*
X24130000Y34093900D02*
X23995000Y34093900D01*
X24130000Y33015000D02*
X24130000Y34093900D01*
X23051100Y35620000D02*
X21595000Y37076100D01*
X23995000Y34093900D02*
X23051100Y35037800D01*
X23051100Y35037800D02*
X23051100Y35620000D01*
X21595000Y38105000D02*
X21595000Y37076100D01*
X3487800Y13965000D02*
X4108200Y13965000D01*
X4108200Y13965000D02*
X5122800Y12950400D01*
X2691000Y23332000D02*
X2691000Y14761800D01*
X3675100Y24316100D02*
X2691000Y23332000D01*
X2691000Y14761800D02*
X3487800Y13965000D01*
X5122800Y12426100D02*
X6355000Y11193900D01*
X5122800Y12950400D02*
X5122800Y12426100D01*
X3810000Y25395000D02*
X3810000Y24316100D01*
X6355000Y10165000D02*
X6355000Y11193900D01*
X3810000Y24316100D02*
X3675100Y24316100D01*
X3810000Y27935000D02*
X4888900Y27935000D01*
X4888900Y27935000D02*
X5913400Y26910500D01*
X5913400Y26910500D02*
X19531600Y26910500D01*
X21595000Y27945000D02*
X20566100Y27945000D01*
X19531600Y26910500D02*
X20566100Y27945000D01*
X22625100Y28382000D02*
X22625100Y27464000D01*
X3675100Y37016100D02*
X2716000Y36057000D01*
X16156500Y34170900D02*
X21112400Y29215000D01*
X21595000Y25405000D02*
X21595000Y26433900D01*
X21792100Y29215000D02*
X22625100Y28382000D01*
X22625100Y27464000D02*
X21595000Y26433900D01*
X4889000Y34170900D02*
X16156500Y34170900D01*
X3810000Y37016100D02*
X3675100Y37016100D01*
X21112400Y29215000D02*
X21792100Y29215000D01*
X4583800Y34476100D02*
X4889000Y34170900D01*
X3810000Y38095000D02*
X3810000Y37016100D01*
X2716000Y35095100D02*
X3335000Y34476100D01*
X2716000Y36057000D02*
X2716000Y35095100D01*
X3335000Y34476100D02*
X4583800Y34476100D01*
X20673900Y34187100D02*
X15486000Y39375000D01*
X15486000Y39375000D02*
X6148900Y39375000D01*
X6148900Y39375000D02*
X4888900Y40635000D01*
X22930300Y25229200D02*
X22930300Y33192900D01*
X3810000Y40635000D02*
X4888900Y40635000D01*
X22930300Y33192900D02*
X21936100Y34187100D01*
X21595000Y22865000D02*
X21595000Y23893900D01*
X21595000Y23893900D02*
X22930300Y25229200D01*
X21936100Y34187100D02*
X20673900Y34187100D01*
X21595000Y20325000D02*
X20566100Y20325000D01*
X3596400Y26605300D02*
X14285800Y26605300D01*
X3810000Y31936100D02*
X3675100Y31936100D01*
X2703100Y30964100D02*
X2703100Y27498600D01*
X3675100Y31936100D02*
X2703100Y30964100D01*
X2703100Y27498600D02*
X3596400Y26605300D01*
X14285800Y26605300D02*
X20566100Y20325000D01*
X3810000Y33015000D02*
X3810000Y31936100D01*
X22633900Y7615000D02*
X22623900Y7625000D01*
X24130000Y7615000D02*
X22633900Y7615000D01*
X21595000Y7625000D02*
X22623900Y7625000D01*
X22860000Y19050000D02*
X21595000Y17785000D01*
X15240000Y62865000D02*
X15240000Y61595000D01*
X25654000Y19812000D02*
X24892000Y19050000D01*
X15240000Y61595000D02*
X15875000Y60960000D01*
X25273000Y60960000D02*
X25654000Y60579000D01*
X15875000Y60960000D02*
X25273000Y60960000D01*
X24892000Y19050000D02*
X22860000Y19050000D01*
X25654000Y60579000D02*
X25654000Y19812000D01*
X25400000Y61341000D02*
X18415000Y61341000D01*
X26035000Y15240000D02*
X26035000Y60706000D01*
X18415000Y61341000D02*
X17780000Y61976000D01*
X24765000Y13970000D02*
X26035000Y15240000D01*
X26035000Y60706000D02*
X25400000Y61341000D01*
X21595000Y15245000D02*
X22870000Y13970000D01*
X17780000Y61976000D02*
X17780000Y62865000D01*
X22870000Y13970000D02*
X24765000Y13970000D01*
X5967800Y34476100D02*
X16283000Y34476100D01*
X17734100Y33025000D02*
X21595000Y33025000D01*
X16283000Y34476100D02*
X17734100Y33025000D01*
X3810000Y35555000D02*
X4888900Y35555000D01*
X4888900Y35555000D02*
X5967800Y34476100D01*
X22107200Y11233900D02*
X8855000Y11233900D01*
X6355000Y12705000D02*
X7383900Y12705000D01*
X23051100Y10290000D02*
X22107200Y11233900D01*
X23051100Y10155000D02*
X23051100Y10290000D01*
X8855000Y11233900D02*
X7383900Y12705000D01*
X24130000Y10155000D02*
X23051100Y10155000D01*
G04 #@! TA.AperFunction,Conductor*
G36*
X27442121Y64479998D02*
G01*
X27488614Y64426342D01*
X27500000Y64374000D01*
X27500000Y626000D01*
X27479998Y557879D01*
X27426342Y511386D01*
X27374000Y500000D01*
X626000Y500000D01*
X557879Y520002D01*
X511386Y573658D01*
X500000Y626000D01*
X500000Y1453938D01*
X1838493Y1453938D01*
X1847789Y1441923D01*
X1898994Y1406069D01*
X1908489Y1400586D01*
X2105947Y1308510D01*
X2116239Y1304764D01*
X2326688Y1248375D01*
X2337481Y1246472D01*
X2554525Y1227483D01*
X2565475Y1227483D01*
X2782519Y1246472D01*
X2793312Y1248375D01*
X3003761Y1304764D01*
X3014053Y1308510D01*
X3211511Y1400586D01*
X3221006Y1406069D01*
X3273048Y1442509D01*
X3281424Y1452988D01*
X3274356Y1466434D01*
X2572812Y2167978D01*
X2558868Y2175592D01*
X2557035Y2175461D01*
X2550420Y2171210D01*
X1844923Y1465713D01*
X1838493Y1453938D01*
X500000Y1453938D01*
X500000Y2534525D01*
X1247483Y2534525D01*
X1266472Y2317481D01*
X1268375Y2306688D01*
X1324764Y2096239D01*
X1328510Y2085947D01*
X1420586Y1888489D01*
X1426069Y1878994D01*
X1462509Y1826952D01*
X1472988Y1818576D01*
X1486434Y1825644D01*
X2187978Y2527188D01*
X2194356Y2538868D01*
X2924408Y2538868D01*
X2924539Y2537035D01*
X2928790Y2530420D01*
X3634287Y1824923D01*
X3646062Y1818493D01*
X3658077Y1827789D01*
X3693931Y1878994D01*
X3699414Y1888489D01*
X3782680Y2067054D01*
X3829597Y2120339D01*
X3897875Y2139800D01*
X3965835Y2119258D01*
X4011300Y2066556D01*
X4059369Y1962286D01*
X4181405Y1789609D01*
X4332865Y1642063D01*
X4337661Y1638858D01*
X4337664Y1638856D01*
X4480936Y1543125D01*
X4508677Y1524589D01*
X4513985Y1522308D01*
X4513986Y1522308D01*
X4697650Y1443400D01*
X4697653Y1443399D01*
X4702953Y1441122D01*
X4708582Y1439848D01*
X4708583Y1439848D01*
X4903550Y1395731D01*
X4903553Y1395731D01*
X4909186Y1394456D01*
X4914957Y1394229D01*
X4914959Y1394229D01*
X4976989Y1391792D01*
X5120470Y1386154D01*
X5126179Y1386982D01*
X5126183Y1386982D01*
X5324015Y1415667D01*
X5324019Y1415668D01*
X5329730Y1416496D01*
X5408987Y1443400D01*
X5524483Y1482605D01*
X5524488Y1482607D01*
X5529955Y1484463D01*
X5534998Y1487287D01*
X5709395Y1584954D01*
X5709399Y1584957D01*
X5714442Y1587781D01*
X5877012Y1722988D01*
X6012219Y1885558D01*
X6015043Y1890601D01*
X6015046Y1890605D01*
X6112713Y2065002D01*
X6112714Y2065004D01*
X6115537Y2070045D01*
X6117393Y2075512D01*
X6117395Y2075517D01*
X6181647Y2264800D01*
X6183504Y2270270D01*
X6188785Y2306688D01*
X6213314Y2475860D01*
X6213314Y2475862D01*
X6213846Y2479530D01*
X6215429Y2540000D01*
X6212650Y2570246D01*
X14719967Y2570246D01*
X14733796Y2359251D01*
X14735217Y2353655D01*
X14735218Y2353650D01*
X14757784Y2264800D01*
X14785845Y2154310D01*
X14874369Y1962286D01*
X14996405Y1789609D01*
X15147865Y1642063D01*
X15152661Y1638858D01*
X15152664Y1638856D01*
X15295936Y1543125D01*
X15323677Y1524589D01*
X15328985Y1522308D01*
X15328986Y1522308D01*
X15512650Y1443400D01*
X15512653Y1443399D01*
X15517953Y1441122D01*
X15523582Y1439848D01*
X15523583Y1439848D01*
X15718550Y1395731D01*
X15718553Y1395731D01*
X15724186Y1394456D01*
X15729957Y1394229D01*
X15729959Y1394229D01*
X15791989Y1391792D01*
X15935470Y1386154D01*
X15941179Y1386982D01*
X15941183Y1386982D01*
X16139015Y1415667D01*
X16139019Y1415668D01*
X16144730Y1416496D01*
X16223987Y1443400D01*
X16339483Y1482605D01*
X16339488Y1482607D01*
X16344955Y1484463D01*
X16349998Y1487287D01*
X16524395Y1584954D01*
X16524399Y1584957D01*
X16529442Y1587781D01*
X16692012Y1722988D01*
X16827219Y1885558D01*
X16830043Y1890601D01*
X16830046Y1890605D01*
X16927713Y2065002D01*
X16927714Y2065004D01*
X16930537Y2070045D01*
X16932393Y2075512D01*
X16932395Y2075517D01*
X16996647Y2264800D01*
X16998504Y2270270D01*
X17003785Y2306688D01*
X17028314Y2475860D01*
X17028314Y2475862D01*
X17028846Y2479530D01*
X17030429Y2540000D01*
X17027650Y2570246D01*
X24879967Y2570246D01*
X24893796Y2359251D01*
X24895217Y2353655D01*
X24895218Y2353650D01*
X24917784Y2264800D01*
X24945845Y2154310D01*
X25034369Y1962286D01*
X25156405Y1789609D01*
X25307865Y1642063D01*
X25312661Y1638858D01*
X25312664Y1638856D01*
X25455936Y1543125D01*
X25483677Y1524589D01*
X25488985Y1522308D01*
X25488986Y1522308D01*
X25672650Y1443400D01*
X25672653Y1443399D01*
X25677953Y1441122D01*
X25683582Y1439848D01*
X25683583Y1439848D01*
X25878550Y1395731D01*
X25878553Y1395731D01*
X25884186Y1394456D01*
X25889957Y1394229D01*
X25889959Y1394229D01*
X25951989Y1391792D01*
X26095470Y1386154D01*
X26101179Y1386982D01*
X26101183Y1386982D01*
X26299015Y1415667D01*
X26299019Y1415668D01*
X26304730Y1416496D01*
X26383987Y1443400D01*
X26499483Y1482605D01*
X26499488Y1482607D01*
X26504955Y1484463D01*
X26509998Y1487287D01*
X26684395Y1584954D01*
X26684399Y1584957D01*
X26689442Y1587781D01*
X26852012Y1722988D01*
X26987219Y1885558D01*
X26990043Y1890601D01*
X26990046Y1890605D01*
X27087713Y2065002D01*
X27087714Y2065004D01*
X27090537Y2070045D01*
X27092393Y2075512D01*
X27092395Y2075517D01*
X27156647Y2264800D01*
X27158504Y2270270D01*
X27163785Y2306688D01*
X27188314Y2475860D01*
X27188314Y2475862D01*
X27188846Y2479530D01*
X27190429Y2540000D01*
X27171081Y2750560D01*
X27113686Y2954069D01*
X27107455Y2966706D01*
X27022719Y3138531D01*
X27020165Y3143710D01*
X26893651Y3313133D01*
X26738381Y3456663D01*
X26559554Y3569495D01*
X26363160Y3647848D01*
X26357503Y3648973D01*
X26357497Y3648975D01*
X26161442Y3687972D01*
X26161440Y3687972D01*
X26155775Y3689099D01*
X26150000Y3689175D01*
X26149996Y3689175D01*
X26043976Y3690563D01*
X25944346Y3691867D01*
X25938649Y3690888D01*
X25938648Y3690888D01*
X25741650Y3657038D01*
X25741649Y3657038D01*
X25735953Y3656059D01*
X25537575Y3582873D01*
X25532614Y3579921D01*
X25532613Y3579921D01*
X25515089Y3569495D01*
X25355856Y3474762D01*
X25196881Y3335345D01*
X25065976Y3169292D01*
X25063287Y3164181D01*
X25063285Y3164178D01*
X25049792Y3138531D01*
X24967523Y2982164D01*
X24904820Y2780227D01*
X24879967Y2570246D01*
X17027650Y2570246D01*
X17011081Y2750560D01*
X16953686Y2954069D01*
X16947455Y2966706D01*
X16862719Y3138531D01*
X16860165Y3143710D01*
X16733651Y3313133D01*
X16578381Y3456663D01*
X16399554Y3569495D01*
X16203160Y3647848D01*
X16197503Y3648973D01*
X16197497Y3648975D01*
X16001442Y3687972D01*
X16001440Y3687972D01*
X15995775Y3689099D01*
X15990000Y3689175D01*
X15989996Y3689175D01*
X15883976Y3690563D01*
X15784346Y3691867D01*
X15778649Y3690888D01*
X15778648Y3690888D01*
X15581650Y3657038D01*
X15581649Y3657038D01*
X15575953Y3656059D01*
X15377575Y3582873D01*
X15372614Y3579921D01*
X15372613Y3579921D01*
X15355089Y3569495D01*
X15195856Y3474762D01*
X15036881Y3335345D01*
X14905976Y3169292D01*
X14903287Y3164181D01*
X14903285Y3164178D01*
X14889792Y3138531D01*
X14807523Y2982164D01*
X14744820Y2780227D01*
X14719967Y2570246D01*
X6212650Y2570246D01*
X6196081Y2750560D01*
X6138686Y2954069D01*
X6132455Y2966706D01*
X6047719Y3138531D01*
X6045165Y3143710D01*
X5918651Y3313133D01*
X5763381Y3456663D01*
X5584554Y3569495D01*
X5388160Y3647848D01*
X5382503Y3648973D01*
X5382497Y3648975D01*
X5186442Y3687972D01*
X5186440Y3687972D01*
X5180775Y3689099D01*
X5175000Y3689175D01*
X5174996Y3689175D01*
X5068976Y3690563D01*
X4969346Y3691867D01*
X4963649Y3690888D01*
X4963648Y3690888D01*
X4766650Y3657038D01*
X4766649Y3657038D01*
X4760953Y3656059D01*
X4562575Y3582873D01*
X4557614Y3579921D01*
X4557613Y3579921D01*
X4540089Y3569495D01*
X4380856Y3474762D01*
X4221881Y3335345D01*
X4090976Y3169292D01*
X4088284Y3164176D01*
X4088283Y3164174D01*
X4007201Y3010063D01*
X3957782Y2959090D01*
X3888649Y2942927D01*
X3821753Y2966706D01*
X3781498Y3015480D01*
X3699414Y3191511D01*
X3693931Y3201006D01*
X3657491Y3253048D01*
X3647012Y3261424D01*
X3633566Y3254356D01*
X2932022Y2552812D01*
X2924408Y2538868D01*
X2194356Y2538868D01*
X2195592Y2541132D01*
X2195461Y2542965D01*
X2191210Y2549580D01*
X1485713Y3255077D01*
X1473938Y3261507D01*
X1461923Y3252211D01*
X1426069Y3201006D01*
X1420586Y3191511D01*
X1328510Y2994053D01*
X1324764Y2983761D01*
X1268375Y2773312D01*
X1266472Y2762519D01*
X1247483Y2545475D01*
X1247483Y2534525D01*
X500000Y2534525D01*
X500000Y3627012D01*
X1838576Y3627012D01*
X1845644Y3613566D01*
X2547188Y2912022D01*
X2561132Y2904408D01*
X2562965Y2904539D01*
X2569580Y2908790D01*
X3275077Y3614287D01*
X3281507Y3626062D01*
X3272211Y3638077D01*
X3221006Y3673931D01*
X3211511Y3679414D01*
X3014053Y3771490D01*
X3003761Y3775236D01*
X2793312Y3831625D01*
X2782519Y3833528D01*
X2565475Y3852517D01*
X2554525Y3852517D01*
X2337481Y3833528D01*
X2326688Y3831625D01*
X2116239Y3775236D01*
X2105947Y3771490D01*
X1908489Y3679414D01*
X1898994Y3673931D01*
X1846952Y3637491D01*
X1838576Y3627012D01*
X500000Y3627012D01*
X500000Y34955045D01*
X1979492Y34955045D01*
X1981184Y34945783D01*
X1981184Y34945774D01*
X1989463Y34900448D01*
X1990114Y34896540D01*
X1998356Y34841716D01*
X2001316Y34835552D01*
X2002545Y34828823D01*
X2028122Y34779585D01*
X2029879Y34776069D01*
X2049820Y34734541D01*
X2049822Y34734537D01*
X2053898Y34726050D01*
X2058541Y34721028D01*
X2061693Y34714959D01*
X2065774Y34710181D01*
X2100949Y34675006D01*
X2104378Y34671441D01*
X2140995Y34631829D01*
X2147087Y34628290D01*
X2152624Y34623331D01*
X2854340Y33921615D01*
X2888366Y33859303D01*
X2883301Y33788488D01*
X2864195Y33754515D01*
X2802444Y33676183D01*
X2798863Y33671640D01*
X2796174Y33666529D01*
X2796172Y33666526D01*
X2784819Y33644947D01*
X2696131Y33476380D01*
X2630703Y33265667D01*
X2604770Y33046560D01*
X2619200Y32826396D01*
X2620621Y32820800D01*
X2620622Y32820795D01*
X2671427Y32620752D01*
X2673511Y32612548D01*
X2675928Y32607306D01*
X2675928Y32607305D01*
X2717867Y32516332D01*
X2765883Y32412179D01*
X2893222Y32231998D01*
X2996806Y32131090D01*
X3042049Y32087016D01*
X3076886Y32025154D01*
X3072749Y31954278D01*
X3043222Y31907667D01*
X2424578Y31289023D01*
X2413488Y31279168D01*
X2395934Y31265330D01*
X2395930Y31265326D01*
X2388535Y31259496D01*
X2356943Y31213785D01*
X2354710Y31210662D01*
X2321738Y31166021D01*
X2319473Y31159571D01*
X2315583Y31153943D01*
X2312745Y31144968D01*
X2312742Y31144963D01*
X2298856Y31101054D01*
X2297608Y31097313D01*
X2294587Y31088710D01*
X2282343Y31053845D01*
X2282342Y31053842D01*
X2279223Y31044959D01*
X2278954Y31038123D01*
X2276893Y31031605D01*
X2276400Y31025341D01*
X2276400Y30975580D01*
X2276303Y30970634D01*
X2274186Y30916748D01*
X2275992Y30909937D01*
X2276400Y30902522D01*
X2276400Y27531410D01*
X2275527Y27516602D01*
X2271792Y27485045D01*
X2273484Y27475783D01*
X2273484Y27475774D01*
X2281763Y27430448D01*
X2282414Y27426540D01*
X2290656Y27371716D01*
X2293616Y27365552D01*
X2294845Y27358823D01*
X2320422Y27309585D01*
X2322179Y27306069D01*
X2342120Y27264541D01*
X2342122Y27264537D01*
X2346198Y27256050D01*
X2350841Y27251028D01*
X2353993Y27244959D01*
X2358074Y27240181D01*
X2393249Y27205006D01*
X2396678Y27201441D01*
X2433295Y27161829D01*
X2439387Y27158290D01*
X2444924Y27153331D01*
X3073625Y26524630D01*
X3107651Y26462318D01*
X3102586Y26391503D01*
X3067608Y26340803D01*
X2935457Y26224910D01*
X2798863Y26051640D01*
X2696131Y25856380D01*
X2630703Y25645667D01*
X2604770Y25426560D01*
X2619200Y25206396D01*
X2620621Y25200800D01*
X2620622Y25200795D01*
X2665293Y25024905D01*
X2673511Y24992548D01*
X2675928Y24987306D01*
X2675928Y24987305D01*
X2747280Y24832531D01*
X2765883Y24792179D01*
X2893222Y24611998D01*
X2897356Y24607971D01*
X3042049Y24467016D01*
X3076886Y24405154D01*
X3072749Y24334278D01*
X3043222Y24287667D01*
X2412478Y23656923D01*
X2401388Y23647068D01*
X2383834Y23633230D01*
X2383830Y23633226D01*
X2376435Y23627396D01*
X2344843Y23581685D01*
X2342610Y23578562D01*
X2309638Y23533921D01*
X2307373Y23527471D01*
X2303483Y23521843D01*
X2300645Y23512868D01*
X2300642Y23512863D01*
X2286756Y23468954D01*
X2285508Y23465213D01*
X2281240Y23453059D01*
X2270243Y23421745D01*
X2270242Y23421742D01*
X2267123Y23412859D01*
X2266854Y23406023D01*
X2264793Y23399505D01*
X2264300Y23393241D01*
X2264300Y23343480D01*
X2264203Y23338534D01*
X2262086Y23284648D01*
X2263892Y23277837D01*
X2264300Y23270422D01*
X2264300Y14794610D01*
X2263427Y14779802D01*
X2259692Y14748245D01*
X2261384Y14738983D01*
X2261384Y14738974D01*
X2269663Y14693648D01*
X2270314Y14689740D01*
X2278556Y14634916D01*
X2281516Y14628752D01*
X2282745Y14622023D01*
X2308322Y14572785D01*
X2310079Y14569269D01*
X2330020Y14527741D01*
X2330022Y14527737D01*
X2334098Y14519250D01*
X2338741Y14514228D01*
X2341893Y14508159D01*
X2345974Y14503381D01*
X2381149Y14468206D01*
X2384578Y14464641D01*
X2421195Y14425029D01*
X2427287Y14421490D01*
X2432824Y14416531D01*
X3047573Y13801782D01*
X3081599Y13739470D01*
X3076534Y13668655D01*
X3041555Y13617956D01*
X2935457Y13524910D01*
X2798863Y13351640D01*
X2696131Y13156380D01*
X2630703Y12945667D01*
X2604770Y12726560D01*
X2619200Y12506396D01*
X2620621Y12500800D01*
X2620622Y12500795D01*
X2665293Y12324905D01*
X2673511Y12292548D01*
X2675928Y12287306D01*
X2675928Y12287305D01*
X2714046Y12204621D01*
X2765883Y12092179D01*
X2893222Y11911998D01*
X3051264Y11758039D01*
X3056060Y11754834D01*
X3056063Y11754832D01*
X3195370Y11661751D01*
X3234717Y11635460D01*
X3240020Y11633182D01*
X3240023Y11633180D01*
X3424746Y11553817D01*
X3437436Y11548365D01*
X3443071Y11547090D01*
X3443074Y11547089D01*
X3444484Y11546770D01*
X3445083Y11546436D01*
X3448562Y11545306D01*
X3448340Y11544623D01*
X3506511Y11512228D01*
X3540016Y11449634D01*
X3534362Y11378863D01*
X3491344Y11322384D01*
X3460287Y11305665D01*
X3296376Y11245196D01*
X3296368Y11245192D01*
X3290957Y11243196D01*
X3285996Y11240244D01*
X3285995Y11240244D01*
X3156352Y11163114D01*
X3101341Y11130386D01*
X2935457Y10984910D01*
X2798863Y10811640D01*
X2696131Y10616380D01*
X2630703Y10405667D01*
X2604770Y10186560D01*
X2619200Y9966396D01*
X2620621Y9960800D01*
X2620622Y9960795D01*
X2651190Y9840435D01*
X2673511Y9752548D01*
X2675928Y9747306D01*
X2675928Y9747305D01*
X2714046Y9664621D01*
X2765883Y9552179D01*
X2893222Y9371998D01*
X3051264Y9218039D01*
X3056060Y9214834D01*
X3056063Y9214832D01*
X3140261Y9158573D01*
X3234717Y9095460D01*
X3240020Y9093182D01*
X3240023Y9093180D01*
X3408653Y9020731D01*
X3437436Y9008365D01*
X3443071Y9007090D01*
X3443074Y9007089D01*
X3444484Y9006770D01*
X3445083Y9006436D01*
X3448562Y9005306D01*
X3448340Y9004623D01*
X3506511Y8972228D01*
X3540016Y8909634D01*
X3534362Y8838863D01*
X3491344Y8782384D01*
X3460287Y8765665D01*
X3296376Y8705196D01*
X3296368Y8705192D01*
X3290957Y8703196D01*
X3285996Y8700244D01*
X3285995Y8700244D01*
X3182585Y8638721D01*
X3101341Y8590386D01*
X2935457Y8444910D01*
X2798863Y8271640D01*
X2696131Y8076380D01*
X2630703Y7865667D01*
X2604770Y7646560D01*
X2619200Y7426396D01*
X2620621Y7420800D01*
X2620622Y7420795D01*
X2665293Y7244905D01*
X2673511Y7212548D01*
X2675928Y7207306D01*
X2675928Y7207305D01*
X2714046Y7124621D01*
X2765883Y7012179D01*
X2893222Y6831998D01*
X3051264Y6678039D01*
X3056060Y6674834D01*
X3056063Y6674832D01*
X3153707Y6609589D01*
X3234717Y6555460D01*
X3240020Y6553182D01*
X3240023Y6553180D01*
X3402869Y6483216D01*
X3437436Y6468365D01*
X3517088Y6450342D01*
X3646995Y6420946D01*
X3647001Y6420945D01*
X3652632Y6419671D01*
X3658403Y6419444D01*
X3658405Y6419444D01*
X3726211Y6416780D01*
X3873098Y6411009D01*
X3982275Y6426839D01*
X4085738Y6441840D01*
X4085743Y6441841D01*
X4091452Y6442669D01*
X4096916Y6444524D01*
X4096921Y6444525D01*
X4294907Y6511732D01*
X4294912Y6511734D01*
X4300379Y6513590D01*
X4322757Y6526122D01*
X4467724Y6607308D01*
X4492884Y6621398D01*
X4500213Y6627493D01*
X4658086Y6758796D01*
X4662518Y6762482D01*
X4724256Y6836713D01*
X4799908Y6927674D01*
X4799910Y6927677D01*
X4803602Y6932116D01*
X4911410Y7124621D01*
X4913266Y7130088D01*
X4913268Y7130093D01*
X4980475Y7328079D01*
X4980476Y7328084D01*
X4982331Y7333548D01*
X4985775Y7357300D01*
X5015346Y7421846D01*
X5075118Y7460158D01*
X5146114Y7460072D01*
X5205794Y7421617D01*
X5232594Y7370235D01*
X5265845Y7239310D01*
X5354369Y7047286D01*
X5476405Y6874609D01*
X5627865Y6727063D01*
X5632661Y6723858D01*
X5632664Y6723856D01*
X5775936Y6628125D01*
X5803677Y6609589D01*
X5808985Y6607308D01*
X5808986Y6607308D01*
X5992650Y6528400D01*
X5992653Y6528399D01*
X5997953Y6526122D01*
X6003582Y6524848D01*
X6003583Y6524848D01*
X6198550Y6480731D01*
X6198553Y6480731D01*
X6204186Y6479456D01*
X6209957Y6479229D01*
X6209959Y6479229D01*
X6271989Y6476792D01*
X6415470Y6471154D01*
X6421179Y6471982D01*
X6421183Y6471982D01*
X6619015Y6500667D01*
X6619019Y6500668D01*
X6624730Y6501496D01*
X6712038Y6531133D01*
X6819483Y6567605D01*
X6819488Y6567607D01*
X6824955Y6569463D01*
X6829998Y6572287D01*
X7004395Y6669954D01*
X7004399Y6669957D01*
X7009442Y6672781D01*
X7172012Y6807988D01*
X7307219Y6970558D01*
X7310043Y6975601D01*
X7310046Y6975605D01*
X7407713Y7150002D01*
X7407714Y7150004D01*
X7410537Y7155045D01*
X7412393Y7160512D01*
X7412395Y7160517D01*
X7476647Y7349800D01*
X7478504Y7355270D01*
X7488158Y7421846D01*
X7508314Y7560860D01*
X7508314Y7560862D01*
X7508846Y7564530D01*
X7510429Y7625000D01*
X7491081Y7835560D01*
X7433686Y8039069D01*
X7429744Y8047064D01*
X7342719Y8223531D01*
X7340165Y8228710D01*
X7213651Y8398133D01*
X7085237Y8516838D01*
X7062622Y8537743D01*
X7062620Y8537745D01*
X7058381Y8541663D01*
X6930252Y8622507D01*
X6884434Y8651416D01*
X6884433Y8651416D01*
X6879554Y8654495D01*
X6683160Y8732848D01*
X6677503Y8733973D01*
X6677497Y8733975D01*
X6480234Y8773212D01*
X6417324Y8806119D01*
X6382192Y8867814D01*
X6385992Y8938709D01*
X6427517Y8996295D01*
X6486734Y9021487D01*
X6619015Y9040667D01*
X6619019Y9040668D01*
X6624730Y9041496D01*
X6703987Y9068400D01*
X6819483Y9107605D01*
X6819488Y9107607D01*
X6824955Y9109463D01*
X6829998Y9112287D01*
X7004395Y9209954D01*
X7004399Y9209957D01*
X7009442Y9212781D01*
X7172012Y9347988D01*
X7307219Y9510558D01*
X7310043Y9515601D01*
X7310046Y9515605D01*
X7407713Y9690002D01*
X7407714Y9690004D01*
X7410537Y9695045D01*
X7412393Y9700512D01*
X7412395Y9700517D01*
X7476647Y9889800D01*
X7478504Y9895270D01*
X7488158Y9961846D01*
X7508314Y10100860D01*
X7508314Y10100862D01*
X7508846Y10104530D01*
X7510429Y10165000D01*
X7491081Y10375560D01*
X7433686Y10579069D01*
X7429744Y10587064D01*
X7342719Y10763531D01*
X7340165Y10768710D01*
X7213651Y10938133D01*
X7058381Y11081663D01*
X6879554Y11194495D01*
X6847648Y11207224D01*
X6791789Y11251045D01*
X6769740Y11305519D01*
X6768846Y11311467D01*
X6768844Y11311475D01*
X6767444Y11320784D01*
X6764484Y11326948D01*
X6763255Y11333677D01*
X6737678Y11382915D01*
X6735921Y11386431D01*
X6715980Y11427959D01*
X6715978Y11427963D01*
X6711902Y11436450D01*
X6707259Y11441472D01*
X6707125Y11441729D01*
X6706822Y11442684D01*
X6705340Y11445168D01*
X6704112Y11447532D01*
X6705117Y11448054D01*
X6685721Y11509150D01*
X6704232Y11577691D01*
X6756861Y11625343D01*
X6771189Y11631212D01*
X6824955Y11649463D01*
X6840281Y11658046D01*
X7004395Y11749954D01*
X7004399Y11749957D01*
X7009442Y11752781D01*
X7172012Y11887988D01*
X7276883Y12014083D01*
X7335816Y12053664D01*
X7406799Y12055101D01*
X7462849Y12022606D01*
X8530077Y10955378D01*
X8539932Y10944288D01*
X8553770Y10926734D01*
X8553774Y10926730D01*
X8559604Y10919335D01*
X8567351Y10913980D01*
X8567353Y10913979D01*
X8605232Y10887800D01*
X8608454Y10885498D01*
X8645503Y10858132D01*
X8645507Y10858130D01*
X8653079Y10852537D01*
X8659531Y10850271D01*
X8665157Y10846383D01*
X8674134Y10843544D01*
X8674136Y10843543D01*
X8718061Y10829652D01*
X8721791Y10828407D01*
X8774141Y10810023D01*
X8780977Y10809754D01*
X8787495Y10807693D01*
X8793759Y10807200D01*
X8843520Y10807200D01*
X8848466Y10807103D01*
X8902352Y10804986D01*
X8909163Y10806792D01*
X8916578Y10807200D01*
X20424101Y10807200D01*
X20492222Y10787198D01*
X20538715Y10733542D01*
X20548819Y10663268D01*
X20535609Y10622533D01*
X20527523Y10607164D01*
X20464820Y10405227D01*
X20439967Y10195246D01*
X20453796Y9984251D01*
X20455217Y9978655D01*
X20455218Y9978650D01*
X20495961Y9818229D01*
X20505845Y9779310D01*
X20508262Y9774067D01*
X20536122Y9713634D01*
X20594369Y9587286D01*
X20716405Y9414609D01*
X20867865Y9267063D01*
X20872661Y9263858D01*
X20872664Y9263856D01*
X21015936Y9168125D01*
X21043677Y9149589D01*
X21048985Y9147308D01*
X21048986Y9147308D01*
X21232650Y9068400D01*
X21232653Y9068399D01*
X21237953Y9066122D01*
X21243582Y9064848D01*
X21243583Y9064848D01*
X21422368Y9024393D01*
X21484395Y8989850D01*
X21517899Y8927257D01*
X21512245Y8856486D01*
X21469226Y8800006D01*
X21402501Y8775751D01*
X21394560Y8775500D01*
X20761782Y8775500D01*
X20757232Y8774830D01*
X20757229Y8774830D01*
X20702574Y8766784D01*
X20702573Y8766784D01*
X20692888Y8765358D01*
X20642992Y8740860D01*
X20597493Y8718522D01*
X20597491Y8718521D01*
X20588145Y8713932D01*
X20505707Y8631350D01*
X20454464Y8526518D01*
X20444500Y8458218D01*
X20444500Y6791782D01*
X20445170Y6787232D01*
X20445170Y6787229D01*
X20453216Y6732574D01*
X20454642Y6722888D01*
X20506068Y6618145D01*
X20588650Y6535707D01*
X20598006Y6531134D01*
X20598007Y6531133D01*
X20608259Y6526122D01*
X20693482Y6484464D01*
X20719071Y6480731D01*
X20757256Y6475160D01*
X20757260Y6475160D01*
X20761782Y6474500D01*
X22428218Y6474500D01*
X22432768Y6475170D01*
X22432771Y6475170D01*
X22487426Y6483216D01*
X22487427Y6483216D01*
X22497112Y6484642D01*
X22552288Y6511732D01*
X22592507Y6531478D01*
X22592509Y6531479D01*
X22601855Y6536068D01*
X22684293Y6618650D01*
X22735536Y6723482D01*
X22745500Y6791782D01*
X22745500Y7062300D01*
X22765502Y7130421D01*
X22819158Y7176914D01*
X22871500Y7188300D01*
X22924032Y7188300D01*
X22992153Y7168298D01*
X23038458Y7115051D01*
X23083465Y7017424D01*
X23085883Y7012179D01*
X23213222Y6831998D01*
X23371264Y6678039D01*
X23376060Y6674834D01*
X23376063Y6674832D01*
X23473707Y6609589D01*
X23554717Y6555460D01*
X23560020Y6553182D01*
X23560023Y6553180D01*
X23722869Y6483216D01*
X23757436Y6468365D01*
X23837088Y6450342D01*
X23966995Y6420946D01*
X23967001Y6420945D01*
X23972632Y6419671D01*
X23978403Y6419444D01*
X23978405Y6419444D01*
X24046211Y6416780D01*
X24193098Y6411009D01*
X24302275Y6426839D01*
X24405738Y6441840D01*
X24405743Y6441841D01*
X24411452Y6442669D01*
X24416916Y6444524D01*
X24416921Y6444525D01*
X24614907Y6511732D01*
X24614912Y6511734D01*
X24620379Y6513590D01*
X24642757Y6526122D01*
X24787724Y6607308D01*
X24812884Y6621398D01*
X24820213Y6627493D01*
X24978086Y6758796D01*
X24982518Y6762482D01*
X25044256Y6836713D01*
X25119908Y6927674D01*
X25119910Y6927677D01*
X25123602Y6932116D01*
X25231410Y7124621D01*
X25233266Y7130088D01*
X25233268Y7130093D01*
X25300475Y7328079D01*
X25300476Y7328084D01*
X25302331Y7333548D01*
X25303159Y7339257D01*
X25303160Y7339262D01*
X25333458Y7548228D01*
X25333991Y7551902D01*
X25335643Y7615000D01*
X25315454Y7834711D01*
X25313646Y7841124D01*
X25257134Y8041500D01*
X25255565Y8047064D01*
X25157980Y8244947D01*
X25025967Y8421733D01*
X24880770Y8555952D01*
X24868189Y8567582D01*
X24868186Y8567584D01*
X24863949Y8571501D01*
X24677350Y8689236D01*
X24474955Y8769983D01*
X24419096Y8813804D01*
X24395795Y8880868D01*
X24412451Y8949883D01*
X24463775Y8998937D01*
X24481144Y9006326D01*
X24614907Y9051732D01*
X24614912Y9051734D01*
X24620379Y9053590D01*
X24642757Y9066122D01*
X24787724Y9147308D01*
X24812884Y9161398D01*
X24879112Y9216479D01*
X24978086Y9298796D01*
X24982518Y9302482D01*
X25044256Y9376713D01*
X25119908Y9467674D01*
X25119910Y9467677D01*
X25123602Y9472116D01*
X25231410Y9664621D01*
X25233266Y9670088D01*
X25233268Y9670093D01*
X25300475Y9868079D01*
X25300476Y9868084D01*
X25302331Y9873548D01*
X25303159Y9879257D01*
X25303160Y9879262D01*
X25333458Y10088228D01*
X25333991Y10091902D01*
X25335643Y10155000D01*
X25315454Y10374711D01*
X25313646Y10381124D01*
X25257134Y10581500D01*
X25255565Y10587064D01*
X25157980Y10784947D01*
X25125534Y10828398D01*
X25029420Y10957109D01*
X25029420Y10957110D01*
X25025967Y10961733D01*
X24886761Y11090414D01*
X24868189Y11107582D01*
X24868186Y11107584D01*
X24863949Y11111501D01*
X24677350Y11229236D01*
X24474955Y11309983D01*
X24419096Y11353804D01*
X24395795Y11420868D01*
X24412451Y11489883D01*
X24463775Y11538937D01*
X24481144Y11546326D01*
X24614907Y11591732D01*
X24614912Y11591734D01*
X24620379Y11593590D01*
X24645789Y11607820D01*
X24735473Y11658046D01*
X24812884Y11701398D01*
X24879112Y11756479D01*
X24978086Y11838796D01*
X24982518Y11842482D01*
X25044256Y11916713D01*
X25119908Y12007674D01*
X25119910Y12007677D01*
X25123602Y12012116D01*
X25231410Y12204621D01*
X25233266Y12210088D01*
X25233268Y12210093D01*
X25300475Y12408079D01*
X25300476Y12408084D01*
X25302331Y12413548D01*
X25303159Y12419257D01*
X25303160Y12419262D01*
X25333458Y12628228D01*
X25333991Y12631902D01*
X25335643Y12695000D01*
X25315454Y12914711D01*
X25255565Y13127064D01*
X25157980Y13324947D01*
X25147614Y13338829D01*
X25037438Y13486372D01*
X25012706Y13552922D01*
X25027880Y13622278D01*
X25049301Y13650856D01*
X25058594Y13660149D01*
X25062160Y13663579D01*
X25086652Y13686219D01*
X25101771Y13700195D01*
X25105310Y13706287D01*
X25110269Y13711824D01*
X26313522Y14915077D01*
X26324612Y14924932D01*
X26342166Y14938770D01*
X26342170Y14938774D01*
X26349565Y14944604D01*
X26381111Y14990248D01*
X26383406Y14993460D01*
X26410765Y15030501D01*
X26416362Y15038078D01*
X26418628Y15044529D01*
X26422517Y15050157D01*
X26439264Y15103113D01*
X26440500Y15106815D01*
X26455754Y15150251D01*
X26458876Y15159141D01*
X26459144Y15165973D01*
X26461207Y15172495D01*
X26461700Y15178759D01*
X26461700Y15228530D01*
X26461797Y15233477D01*
X26463544Y15277939D01*
X26463914Y15287352D01*
X26462108Y15294163D01*
X26461700Y15301577D01*
X26461700Y60673189D01*
X26462573Y60688000D01*
X26465201Y60710203D01*
X26466308Y60719554D01*
X26456336Y60774155D01*
X26455687Y60778053D01*
X26448844Y60823572D01*
X26447444Y60832884D01*
X26444484Y60839049D01*
X26443255Y60845776D01*
X26417697Y60894978D01*
X26415930Y60898515D01*
X26395981Y60940058D01*
X26395977Y60940064D01*
X26391902Y60948550D01*
X26387258Y60953574D01*
X26384107Y60959640D01*
X26380027Y60964418D01*
X26344851Y60999594D01*
X26341421Y61003160D01*
X26311197Y61035856D01*
X26311198Y61035856D01*
X26304805Y61042771D01*
X26298713Y61046310D01*
X26293176Y61051269D01*
X25724923Y61619522D01*
X25715068Y61630612D01*
X25701230Y61648166D01*
X25701226Y61648170D01*
X25695396Y61655565D01*
X25649685Y61687157D01*
X25646562Y61689390D01*
X25601921Y61722362D01*
X25595471Y61724627D01*
X25589843Y61728517D01*
X25580868Y61731355D01*
X25580863Y61731358D01*
X25536954Y61745244D01*
X25533213Y61746492D01*
X25517779Y61751912D01*
X25489745Y61761757D01*
X25489742Y61761758D01*
X25480859Y61764877D01*
X25474023Y61765146D01*
X25467505Y61767207D01*
X25461241Y61767700D01*
X25411480Y61767700D01*
X25406534Y61767797D01*
X25406256Y61767808D01*
X25352648Y61769914D01*
X25345837Y61768108D01*
X25338422Y61767700D01*
X21226747Y61767700D01*
X21158626Y61787702D01*
X21112133Y61841358D01*
X21102029Y61911632D01*
X21131523Y61976212D01*
X21146177Y61990573D01*
X21168079Y62008789D01*
X21168086Y62008796D01*
X21172518Y62012482D01*
X21313602Y62182116D01*
X21421410Y62374621D01*
X21423266Y62380088D01*
X21423268Y62380093D01*
X21490475Y62578079D01*
X21490476Y62578084D01*
X21492331Y62583548D01*
X21493159Y62589257D01*
X21493160Y62589262D01*
X21523458Y62798228D01*
X21523991Y62801902D01*
X21525643Y62865000D01*
X21505454Y63084711D01*
X21445565Y63297064D01*
X21347980Y63494947D01*
X21307517Y63549134D01*
X21219420Y63667109D01*
X21219420Y63667110D01*
X21215967Y63671733D01*
X21113460Y63766490D01*
X21058189Y63817582D01*
X21058186Y63817584D01*
X21053949Y63821501D01*
X20867350Y63939236D01*
X20662421Y64020994D01*
X20656761Y64022120D01*
X20656757Y64022121D01*
X20451691Y64062911D01*
X20451688Y64062911D01*
X20446024Y64064038D01*
X20440249Y64064114D01*
X20440245Y64064114D01*
X20329504Y64065563D01*
X20225406Y64066926D01*
X20219709Y64065947D01*
X20219708Y64065947D01*
X20013654Y64030541D01*
X20013653Y64030541D01*
X20007957Y64029562D01*
X19800957Y63953196D01*
X19611341Y63840386D01*
X19445457Y63694910D01*
X19308863Y63521640D01*
X19206131Y63326380D01*
X19171414Y63214572D01*
X19170432Y63211409D01*
X19131129Y63152284D01*
X19066100Y63123793D01*
X18995990Y63134983D01*
X18943060Y63182300D01*
X18928830Y63214572D01*
X18907134Y63291500D01*
X18905565Y63297064D01*
X18807980Y63494947D01*
X18767517Y63549134D01*
X18679420Y63667109D01*
X18679420Y63667110D01*
X18675967Y63671733D01*
X18573460Y63766490D01*
X18518189Y63817582D01*
X18518186Y63817584D01*
X18513949Y63821501D01*
X18327350Y63939236D01*
X18122421Y64020994D01*
X18116761Y64022120D01*
X18116757Y64022121D01*
X17911691Y64062911D01*
X17911688Y64062911D01*
X17906024Y64064038D01*
X17900249Y64064114D01*
X17900245Y64064114D01*
X17789504Y64065563D01*
X17685406Y64066926D01*
X17679709Y64065947D01*
X17679708Y64065947D01*
X17473654Y64030541D01*
X17473653Y64030541D01*
X17467957Y64029562D01*
X17260957Y63953196D01*
X17071341Y63840386D01*
X16905457Y63694910D01*
X16768863Y63521640D01*
X16666131Y63326380D01*
X16631414Y63214572D01*
X16630432Y63211409D01*
X16591129Y63152284D01*
X16526100Y63123793D01*
X16455990Y63134983D01*
X16403060Y63182300D01*
X16388830Y63214572D01*
X16367134Y63291500D01*
X16365565Y63297064D01*
X16267980Y63494947D01*
X16227517Y63549134D01*
X16139420Y63667109D01*
X16139420Y63667110D01*
X16135967Y63671733D01*
X16033460Y63766490D01*
X15978189Y63817582D01*
X15978186Y63817584D01*
X15973949Y63821501D01*
X15787350Y63939236D01*
X15582421Y64020994D01*
X15576761Y64022120D01*
X15576757Y64022121D01*
X15371691Y64062911D01*
X15371688Y64062911D01*
X15366024Y64064038D01*
X15360249Y64064114D01*
X15360245Y64064114D01*
X15249504Y64065563D01*
X15145406Y64066926D01*
X15139709Y64065947D01*
X15139708Y64065947D01*
X14933654Y64030541D01*
X14933653Y64030541D01*
X14927957Y64029562D01*
X14720957Y63953196D01*
X14531341Y63840386D01*
X14365457Y63694910D01*
X14228863Y63521640D01*
X14126131Y63326380D01*
X14091414Y63214572D01*
X14090432Y63211409D01*
X14051129Y63152284D01*
X13986100Y63123793D01*
X13915990Y63134983D01*
X13863060Y63182300D01*
X13848830Y63214572D01*
X13827134Y63291500D01*
X13825565Y63297064D01*
X13727980Y63494947D01*
X13687517Y63549134D01*
X13599420Y63667109D01*
X13599420Y63667110D01*
X13595967Y63671733D01*
X13493460Y63766490D01*
X13438189Y63817582D01*
X13438186Y63817584D01*
X13433949Y63821501D01*
X13247350Y63939236D01*
X13042421Y64020994D01*
X13036761Y64022120D01*
X13036757Y64022121D01*
X12831691Y64062911D01*
X12831688Y64062911D01*
X12826024Y64064038D01*
X12820249Y64064114D01*
X12820245Y64064114D01*
X12709504Y64065563D01*
X12605406Y64066926D01*
X12599709Y64065947D01*
X12599708Y64065947D01*
X12393654Y64030541D01*
X12393653Y64030541D01*
X12387957Y64029562D01*
X12180957Y63953196D01*
X11991341Y63840386D01*
X11825457Y63694910D01*
X11688863Y63521640D01*
X11586131Y63326380D01*
X11551414Y63214572D01*
X11550432Y63211409D01*
X11511129Y63152284D01*
X11446100Y63123793D01*
X11375990Y63134983D01*
X11323060Y63182300D01*
X11308830Y63214572D01*
X11287134Y63291500D01*
X11285565Y63297064D01*
X11187980Y63494947D01*
X11147517Y63549134D01*
X11059420Y63667109D01*
X11059420Y63667110D01*
X11055967Y63671733D01*
X10953460Y63766490D01*
X10898189Y63817582D01*
X10898186Y63817584D01*
X10893949Y63821501D01*
X10707350Y63939236D01*
X10502421Y64020994D01*
X10496761Y64022120D01*
X10496757Y64022121D01*
X10291691Y64062911D01*
X10291688Y64062911D01*
X10286024Y64064038D01*
X10280249Y64064114D01*
X10280245Y64064114D01*
X10169504Y64065563D01*
X10065406Y64066926D01*
X10059709Y64065947D01*
X10059708Y64065947D01*
X9853654Y64030541D01*
X9853653Y64030541D01*
X9847957Y64029562D01*
X9640957Y63953196D01*
X9451341Y63840386D01*
X9285457Y63694910D01*
X9263541Y63667109D01*
X9202949Y63590248D01*
X9145068Y63549134D01*
X9074148Y63545840D01*
X9012706Y63581411D01*
X8980248Y63644554D01*
X8977999Y63668253D01*
X8977999Y63759669D01*
X8977629Y63766490D01*
X8972105Y63817352D01*
X8968479Y63832604D01*
X8923324Y63953054D01*
X8914786Y63968649D01*
X8838285Y64070724D01*
X8825724Y64083285D01*
X8723649Y64159786D01*
X8708054Y64168324D01*
X8587606Y64213478D01*
X8572351Y64217105D01*
X8521486Y64222631D01*
X8514672Y64223000D01*
X7892115Y64223000D01*
X7876876Y64218525D01*
X7875671Y64217135D01*
X7874000Y64209452D01*
X7874000Y61525116D01*
X7878475Y61509877D01*
X7879865Y61508672D01*
X7887548Y61507001D01*
X8514669Y61507001D01*
X8521490Y61507371D01*
X8572352Y61512895D01*
X8587604Y61516521D01*
X8708054Y61561676D01*
X8723649Y61570214D01*
X8825724Y61646715D01*
X8838285Y61659276D01*
X8914786Y61761351D01*
X8923324Y61776946D01*
X8968478Y61897394D01*
X8972105Y61912649D01*
X8977631Y61963514D01*
X8978000Y61970328D01*
X8978000Y62060677D01*
X8998002Y62128798D01*
X9051658Y62175291D01*
X9121932Y62185395D01*
X9186512Y62155901D01*
X9206896Y62133398D01*
X9243222Y62081998D01*
X9401264Y61928039D01*
X9406060Y61924834D01*
X9406063Y61924832D01*
X9490254Y61868578D01*
X9584717Y61805460D01*
X9590020Y61803182D01*
X9590023Y61803180D01*
X9778133Y61722362D01*
X9787436Y61718365D01*
X9867088Y61700342D01*
X9996995Y61670946D01*
X9997001Y61670945D01*
X10002632Y61669671D01*
X10008403Y61669444D01*
X10008405Y61669444D01*
X10076211Y61666780D01*
X10223098Y61661009D01*
X10346076Y61678840D01*
X10435738Y61691840D01*
X10435743Y61691841D01*
X10441452Y61692669D01*
X10446916Y61694524D01*
X10446921Y61694525D01*
X10644907Y61761732D01*
X10644912Y61761734D01*
X10650379Y61763590D01*
X10657549Y61767605D01*
X10743826Y61815923D01*
X10842884Y61871398D01*
X10892482Y61912648D01*
X11008086Y62008796D01*
X11012518Y62012482D01*
X11153602Y62182116D01*
X11261410Y62374621D01*
X11263266Y62380088D01*
X11263268Y62380093D01*
X11310264Y62518540D01*
X11351101Y62576617D01*
X11416854Y62603395D01*
X11486646Y62590374D01*
X11538319Y62541687D01*
X11551700Y62509054D01*
X11562089Y62468145D01*
X11562091Y62468140D01*
X11563511Y62462548D01*
X11565928Y62457306D01*
X11565928Y62457305D01*
X11604046Y62374621D01*
X11655883Y62262179D01*
X11783222Y62081998D01*
X11941264Y61928039D01*
X11946060Y61924834D01*
X11946063Y61924832D01*
X12030254Y61868578D01*
X12124717Y61805460D01*
X12130020Y61803182D01*
X12130023Y61803180D01*
X12318133Y61722362D01*
X12327436Y61718365D01*
X12407088Y61700342D01*
X12536995Y61670946D01*
X12537001Y61670945D01*
X12542632Y61669671D01*
X12548403Y61669444D01*
X12548405Y61669444D01*
X12616211Y61666780D01*
X12763098Y61661009D01*
X12886076Y61678840D01*
X12975738Y61691840D01*
X12975743Y61691841D01*
X12981452Y61692669D01*
X12986916Y61694524D01*
X12986921Y61694525D01*
X13184907Y61761732D01*
X13184912Y61761734D01*
X13190379Y61763590D01*
X13197549Y61767605D01*
X13283826Y61815923D01*
X13382884Y61871398D01*
X13432482Y61912648D01*
X13548086Y62008796D01*
X13552518Y62012482D01*
X13693602Y62182116D01*
X13801410Y62374621D01*
X13803266Y62380088D01*
X13803268Y62380093D01*
X13850264Y62518540D01*
X13891101Y62576617D01*
X13956854Y62603395D01*
X14026646Y62590374D01*
X14078319Y62541687D01*
X14091700Y62509054D01*
X14102089Y62468145D01*
X14102091Y62468140D01*
X14103511Y62462548D01*
X14105928Y62457306D01*
X14105928Y62457305D01*
X14144046Y62374621D01*
X14195883Y62262179D01*
X14323222Y62081998D01*
X14481264Y61928039D01*
X14486060Y61924834D01*
X14486063Y61924832D01*
X14570254Y61868578D01*
X14664717Y61805460D01*
X14670024Y61803180D01*
X14670026Y61803179D01*
X14737037Y61774389D01*
X14791730Y61729121D01*
X14813300Y61658621D01*
X14813300Y61627810D01*
X14812427Y61613002D01*
X14808692Y61581445D01*
X14810384Y61572183D01*
X14810384Y61572174D01*
X14818663Y61526848D01*
X14819314Y61522940D01*
X14827556Y61468116D01*
X14830516Y61461952D01*
X14831745Y61455223D01*
X14857322Y61405985D01*
X14859079Y61402469D01*
X14879020Y61360941D01*
X14879022Y61360937D01*
X14883098Y61352450D01*
X14887741Y61347428D01*
X14890893Y61341359D01*
X14894974Y61336581D01*
X14930149Y61301406D01*
X14933578Y61297841D01*
X14970195Y61258229D01*
X14976287Y61254690D01*
X14981824Y61249731D01*
X15550077Y60681478D01*
X15559932Y60670388D01*
X15573770Y60652834D01*
X15573774Y60652830D01*
X15579604Y60645435D01*
X15587351Y60640080D01*
X15587353Y60640079D01*
X15625232Y60613900D01*
X15628454Y60611598D01*
X15665503Y60584232D01*
X15665507Y60584230D01*
X15673079Y60578637D01*
X15679531Y60576371D01*
X15685157Y60572483D01*
X15694134Y60569644D01*
X15694136Y60569643D01*
X15738061Y60555752D01*
X15741791Y60554507D01*
X15794141Y60536123D01*
X15800977Y60535854D01*
X15807495Y60533793D01*
X15813759Y60533300D01*
X15863520Y60533300D01*
X15868466Y60533203D01*
X15922352Y60531086D01*
X15929163Y60532892D01*
X15936578Y60533300D01*
X25044065Y60533300D01*
X25112186Y60513298D01*
X25133160Y60496395D01*
X25190395Y60439160D01*
X25224421Y60376848D01*
X25227300Y60350065D01*
X25227300Y57189724D01*
X25207298Y57121603D01*
X25153642Y57075110D01*
X25083368Y57065006D01*
X25081951Y57065324D01*
X25081518Y57065536D01*
X25039702Y57071636D01*
X25017744Y57074840D01*
X25017740Y57074840D01*
X25013218Y57075500D01*
X23246782Y57075500D01*
X23242232Y57074830D01*
X23242229Y57074830D01*
X23187574Y57066784D01*
X23187573Y57066784D01*
X23177888Y57065358D01*
X23127992Y57040860D01*
X23082493Y57018522D01*
X23082491Y57018521D01*
X23073145Y57013932D01*
X22990707Y56931350D01*
X22986134Y56921994D01*
X22986133Y56921993D01*
X22982468Y56914495D01*
X22939464Y56826518D01*
X22929500Y56758218D01*
X22929500Y56659186D01*
X22909498Y56591065D01*
X22855842Y56544572D01*
X22785568Y56534468D01*
X22720988Y56563962D01*
X22700287Y56586915D01*
X22603972Y56724467D01*
X22596916Y56732875D01*
X22442875Y56886916D01*
X22434467Y56893972D01*
X22256007Y57018931D01*
X22246511Y57024414D01*
X22049053Y57116490D01*
X22038761Y57120236D01*
X21866497Y57166394D01*
X21852401Y57166058D01*
X21849000Y57158116D01*
X21849000Y55757000D01*
X21828998Y55688879D01*
X21775342Y55642386D01*
X21723000Y55631000D01*
X20327033Y55631000D01*
X20313502Y55627027D01*
X20312273Y55618478D01*
X20359764Y55441239D01*
X20363510Y55430947D01*
X20455586Y55233489D01*
X20461069Y55223993D01*
X20586028Y55045533D01*
X20593084Y55037125D01*
X20610114Y55020095D01*
X20644140Y54957783D01*
X20639075Y54886968D01*
X20596528Y54830132D01*
X20530008Y54805321D01*
X20521019Y54805000D01*
X8450011Y54805000D01*
X8435203Y54805873D01*
X8403646Y54809608D01*
X8394382Y54807916D01*
X8394381Y54807916D01*
X8349065Y54799640D01*
X8345162Y54798990D01*
X8299627Y54792144D01*
X8299626Y54792144D01*
X8290316Y54790744D01*
X8284152Y54787784D01*
X8277423Y54786555D01*
X8228185Y54760978D01*
X8224669Y54759221D01*
X8183141Y54739280D01*
X8183137Y54739278D01*
X8174650Y54735202D01*
X8169628Y54730559D01*
X8163559Y54727407D01*
X8158782Y54723326D01*
X8123619Y54688163D01*
X8120054Y54684734D01*
X8080429Y54648105D01*
X8076890Y54642012D01*
X8071930Y54636474D01*
X7461920Y54026465D01*
X7399608Y53992440D01*
X7328792Y53997505D01*
X7271867Y54040172D01*
X7217104Y54113509D01*
X7217103Y54113510D01*
X7213651Y54118133D01*
X7058381Y54261663D01*
X6879554Y54374495D01*
X6761086Y54421759D01*
X6705228Y54465578D01*
X6681927Y54532642D01*
X6698583Y54601658D01*
X6706426Y54613648D01*
X6736363Y54654179D01*
X6738629Y54660631D01*
X6742517Y54666257D01*
X6747829Y54683052D01*
X6759248Y54719161D01*
X6760502Y54722918D01*
X6761423Y54725541D01*
X6775525Y54765695D01*
X6816967Y54823339D01*
X6832840Y54833879D01*
X6920691Y54883078D01*
X7009442Y54932781D01*
X7172012Y55067988D01*
X7307219Y55230558D01*
X7310043Y55235601D01*
X7310046Y55235605D01*
X7407713Y55410002D01*
X7407714Y55410004D01*
X7410537Y55415045D01*
X7412393Y55420512D01*
X7412395Y55420517D01*
X7476647Y55609800D01*
X7478504Y55615270D01*
X7499055Y55757000D01*
X7508314Y55820860D01*
X7508314Y55820862D01*
X7508846Y55824530D01*
X7510429Y55885000D01*
X7491081Y56095560D01*
X7478348Y56140710D01*
X7473895Y56156497D01*
X20313606Y56156497D01*
X20313942Y56142401D01*
X20321884Y56139000D01*
X21322885Y56139000D01*
X21338124Y56143475D01*
X21339329Y56144865D01*
X21341000Y56152548D01*
X21341000Y57152967D01*
X21337027Y57166498D01*
X21328478Y57167727D01*
X21151239Y57120236D01*
X21140947Y57116490D01*
X20943489Y57024414D01*
X20933993Y57018931D01*
X20755533Y56893972D01*
X20747125Y56886916D01*
X20593084Y56732875D01*
X20586028Y56724467D01*
X20461069Y56546007D01*
X20455586Y56536511D01*
X20363510Y56339053D01*
X20359764Y56328761D01*
X20313606Y56156497D01*
X7473895Y56156497D01*
X7453637Y56228326D01*
X7433686Y56299069D01*
X7422553Y56321646D01*
X7342719Y56483531D01*
X7340165Y56488710D01*
X7213651Y56658133D01*
X7058381Y56801663D01*
X6879554Y56914495D01*
X6683160Y56992848D01*
X6677503Y56993973D01*
X6677497Y56993975D01*
X6481442Y57032972D01*
X6481440Y57032972D01*
X6475775Y57034099D01*
X6470000Y57034175D01*
X6469996Y57034175D01*
X6363976Y57035563D01*
X6264346Y57036867D01*
X6258649Y57035888D01*
X6258648Y57035888D01*
X6061650Y57002038D01*
X6061649Y57002038D01*
X6055953Y57001059D01*
X5857575Y56927873D01*
X5852614Y56924921D01*
X5852613Y56924921D01*
X5835089Y56914495D01*
X5675856Y56819762D01*
X5516881Y56680345D01*
X5385976Y56514292D01*
X5383287Y56509181D01*
X5383285Y56509178D01*
X5369792Y56483531D01*
X5287523Y56327164D01*
X5268435Y56265690D01*
X5256833Y56228326D01*
X5217530Y56169201D01*
X5152500Y56140710D01*
X5082391Y56151900D01*
X5029461Y56199217D01*
X5010500Y56265690D01*
X5010500Y56758218D01*
X5004682Y56797743D01*
X5001784Y56817426D01*
X5001784Y56817427D01*
X5000358Y56827112D01*
X4958967Y56911416D01*
X4953522Y56922507D01*
X4953521Y56922509D01*
X4948932Y56931855D01*
X4889976Y56990708D01*
X4873721Y57006935D01*
X4873720Y57006935D01*
X4866350Y57014293D01*
X4761518Y57065536D01*
X4731027Y57069984D01*
X4697744Y57074840D01*
X4697740Y57074840D01*
X4693218Y57075500D01*
X2926782Y57075500D01*
X2922232Y57074830D01*
X2922229Y57074830D01*
X2867574Y57066784D01*
X2867573Y57066784D01*
X2857888Y57065358D01*
X2807992Y57040860D01*
X2762493Y57018522D01*
X2762491Y57018521D01*
X2753145Y57013932D01*
X2670707Y56931350D01*
X2666134Y56921994D01*
X2666133Y56921993D01*
X2662468Y56914495D01*
X2619464Y56826518D01*
X2609500Y56758218D01*
X2609500Y54991782D01*
X2610170Y54987232D01*
X2610170Y54987229D01*
X2618186Y54932781D01*
X2619642Y54922888D01*
X2623958Y54914098D01*
X2665183Y54830132D01*
X2671068Y54818145D01*
X2753650Y54735707D01*
X2763006Y54731134D01*
X2763007Y54731133D01*
X2795460Y54715270D01*
X2858482Y54684464D01*
X2888973Y54680016D01*
X2922256Y54675160D01*
X2922260Y54675160D01*
X2926782Y54674500D01*
X3266570Y54674500D01*
X3334691Y54654498D01*
X3381184Y54600842D01*
X3391288Y54530568D01*
X3361794Y54465988D01*
X3310180Y54430288D01*
X3301382Y54427042D01*
X3290957Y54423196D01*
X3285996Y54420244D01*
X3285995Y54420244D01*
X3212694Y54376634D01*
X3101341Y54310386D01*
X2935457Y54164910D01*
X2798863Y53991640D01*
X2696131Y53796380D01*
X2630703Y53585667D01*
X2604770Y53366560D01*
X2619200Y53146396D01*
X2620621Y53140800D01*
X2620622Y53140795D01*
X2661843Y52978489D01*
X2673511Y52932548D01*
X2675928Y52927306D01*
X2675928Y52927305D01*
X2684989Y52907650D01*
X2765883Y52732179D01*
X2893222Y52551998D01*
X3051264Y52398039D01*
X3056060Y52394834D01*
X3056063Y52394832D01*
X3140261Y52338573D01*
X3234717Y52275460D01*
X3240020Y52273182D01*
X3240023Y52273180D01*
X3432129Y52190645D01*
X3437436Y52188365D01*
X3443071Y52187090D01*
X3443074Y52187089D01*
X3444484Y52186770D01*
X3445083Y52186436D01*
X3448562Y52185306D01*
X3448340Y52184623D01*
X3506511Y52152228D01*
X3540016Y52089634D01*
X3534362Y52018863D01*
X3491344Y51962384D01*
X3460287Y51945665D01*
X3296376Y51885196D01*
X3296368Y51885192D01*
X3290957Y51883196D01*
X3285996Y51880244D01*
X3285995Y51880244D01*
X3155594Y51802663D01*
X3101341Y51770386D01*
X2935457Y51624910D01*
X2798863Y51451640D01*
X2696131Y51256380D01*
X2630703Y51045667D01*
X2604770Y50826560D01*
X2619200Y50606396D01*
X2620621Y50600800D01*
X2620622Y50600795D01*
X2651190Y50480435D01*
X2673511Y50392548D01*
X2675928Y50387306D01*
X2675928Y50387305D01*
X2714046Y50304621D01*
X2765883Y50192179D01*
X2893222Y50011998D01*
X3051264Y49858039D01*
X3056060Y49854834D01*
X3056063Y49854832D01*
X3153707Y49789589D01*
X3234717Y49735460D01*
X3240019Y49733182D01*
X3240032Y49733175D01*
X3319595Y49698992D01*
X3374288Y49653724D01*
X3388098Y49621675D01*
X3388869Y49621973D01*
X3390000Y49619050D01*
X3391234Y49614397D01*
X3392823Y49610709D01*
X3393924Y49605784D01*
X3396156Y49598530D01*
X3397556Y49589216D01*
X3415935Y49550941D01*
X3419851Y49541890D01*
X3424839Y49528998D01*
X3430764Y49458251D01*
X3397499Y49395530D01*
X3350937Y49365324D01*
X3296376Y49345196D01*
X3296368Y49345192D01*
X3290957Y49343196D01*
X3285996Y49340244D01*
X3285995Y49340244D01*
X3134185Y49249926D01*
X3101341Y49230386D01*
X2935457Y49084910D01*
X2798863Y48911640D01*
X2696131Y48716380D01*
X2630703Y48505667D01*
X2604770Y48286560D01*
X2619200Y48066396D01*
X2620621Y48060800D01*
X2620622Y48060795D01*
X2635812Y48000985D01*
X2673511Y47852548D01*
X2675928Y47847306D01*
X2675928Y47847305D01*
X2747280Y47692531D01*
X2765883Y47652179D01*
X2893222Y47471998D01*
X3051264Y47318039D01*
X3056060Y47314834D01*
X3056063Y47314832D01*
X3152010Y47250723D01*
X3234717Y47195460D01*
X3240019Y47193182D01*
X3240032Y47193175D01*
X3319595Y47158992D01*
X3374288Y47113724D01*
X3388098Y47081675D01*
X3388869Y47081973D01*
X3390000Y47079050D01*
X3391234Y47074397D01*
X3392823Y47070709D01*
X3393924Y47065784D01*
X3396156Y47058530D01*
X3397556Y47049216D01*
X3415935Y47010941D01*
X3419851Y47001890D01*
X3424839Y46988998D01*
X3430764Y46918251D01*
X3397499Y46855530D01*
X3350937Y46825324D01*
X3296376Y46805196D01*
X3296368Y46805192D01*
X3290957Y46803196D01*
X3285996Y46800244D01*
X3285995Y46800244D01*
X3155584Y46722657D01*
X3101341Y46690386D01*
X2935457Y46544910D01*
X2798863Y46371640D01*
X2696131Y46176380D01*
X2630703Y45965667D01*
X2604770Y45746560D01*
X2619200Y45526396D01*
X2673511Y45312548D01*
X2675928Y45307306D01*
X2675928Y45307305D01*
X2723365Y45204407D01*
X2765883Y45112179D01*
X2893222Y44931998D01*
X3051264Y44778039D01*
X3056060Y44774834D01*
X3056063Y44774832D01*
X3140261Y44718573D01*
X3234717Y44655460D01*
X3240020Y44653182D01*
X3240023Y44653180D01*
X3426841Y44572917D01*
X3437436Y44568365D01*
X3443071Y44567090D01*
X3443074Y44567089D01*
X3444484Y44566770D01*
X3445083Y44566436D01*
X3448562Y44565306D01*
X3448340Y44564623D01*
X3506511Y44532228D01*
X3540016Y44469634D01*
X3534362Y44398863D01*
X3491344Y44342384D01*
X3460287Y44325665D01*
X3296376Y44265196D01*
X3296368Y44265192D01*
X3290957Y44263196D01*
X3285996Y44260244D01*
X3285995Y44260244D01*
X3147568Y44177888D01*
X3101341Y44150386D01*
X2935457Y44004910D01*
X2798863Y43831640D01*
X2696131Y43636380D01*
X2630703Y43425667D01*
X2604770Y43206560D01*
X2619200Y42986396D01*
X2673511Y42772548D01*
X2675928Y42767306D01*
X2675928Y42767305D01*
X2723365Y42664407D01*
X2765883Y42572179D01*
X2893222Y42391998D01*
X2996806Y42291090D01*
X3042049Y42247016D01*
X3076886Y42185154D01*
X3072749Y42114278D01*
X3043222Y42067667D01*
X2132278Y41156723D01*
X2121188Y41146868D01*
X2103634Y41133030D01*
X2103630Y41133026D01*
X2096235Y41127196D01*
X2064643Y41081485D01*
X2062410Y41078362D01*
X2029438Y41033721D01*
X2027173Y41027271D01*
X2023283Y41021643D01*
X2020445Y41012668D01*
X2020442Y41012663D01*
X2006556Y40968754D01*
X2005303Y40964997D01*
X1990043Y40921545D01*
X1990042Y40921542D01*
X1986923Y40912659D01*
X1986654Y40905823D01*
X1984593Y40899305D01*
X1984100Y40893041D01*
X1984100Y40843280D01*
X1984003Y40838334D01*
X1981886Y40784448D01*
X1983692Y40777637D01*
X1984100Y40770222D01*
X1984100Y35001410D01*
X1983227Y34986602D01*
X1979492Y34955045D01*
X500000Y34955045D01*
X500000Y61970331D01*
X6262001Y61970331D01*
X6262371Y61963510D01*
X6267895Y61912648D01*
X6271521Y61897396D01*
X6316676Y61776946D01*
X6325214Y61761351D01*
X6401715Y61659276D01*
X6414276Y61646715D01*
X6516351Y61570214D01*
X6531946Y61561676D01*
X6652394Y61516522D01*
X6667649Y61512895D01*
X6718514Y61507369D01*
X6725328Y61507000D01*
X7347885Y61507000D01*
X7363124Y61511475D01*
X7364329Y61512865D01*
X7366000Y61520548D01*
X7366000Y62592885D01*
X7361525Y62608124D01*
X7360135Y62609329D01*
X7352452Y62611000D01*
X6280116Y62611000D01*
X6264877Y62606525D01*
X6263672Y62605135D01*
X6262001Y62597452D01*
X6262001Y61970331D01*
X500000Y61970331D01*
X500000Y63137115D01*
X6262000Y63137115D01*
X6266475Y63121876D01*
X6267865Y63120671D01*
X6275548Y63119000D01*
X7347885Y63119000D01*
X7363124Y63123475D01*
X7364329Y63124865D01*
X7366000Y63132548D01*
X7366000Y64204884D01*
X7361525Y64220123D01*
X7360135Y64221328D01*
X7352452Y64222999D01*
X6725331Y64222999D01*
X6718510Y64222629D01*
X6667648Y64217105D01*
X6652396Y64213479D01*
X6531946Y64168324D01*
X6516351Y64159786D01*
X6414276Y64083285D01*
X6401715Y64070724D01*
X6325214Y63968649D01*
X6316676Y63953054D01*
X6271522Y63832606D01*
X6267895Y63817351D01*
X6262369Y63766486D01*
X6262000Y63759672D01*
X6262000Y63137115D01*
X500000Y63137115D01*
X500000Y64374000D01*
X520002Y64442121D01*
X573658Y64488614D01*
X626000Y64500000D01*
X27374000Y64500000D01*
X27442121Y64479998D01*
G37*
G04 #@! TD.AperFunction*
M02*
